<svg xmlns="http://www.w3.org/2000/svg" viewBox="0 0 907 153"><g stroke-width="2" fill="none"><path stroke="#3a3639" stroke-opacity=".996" vector-effect="non-scaling-stroke" d="M543.39 71.87q-.41.77-.23 1.55"/><path stroke="#768395" vector-effect="non-scaling-stroke" d="M543.16 73.42q-3.84-7.44-7.57-14.93-.76-1.54-1.39-2.72-4.83-9.02-9.38-19.24-1.83-4.11-3.52-7.31-2.92-5.51-3.7-7.42-2.34-5.73-5.94-12.48-2.24-4.19-7.6-4.15-11.22.07-18.33.21c-2.14.05-2.63-1.53-4.38-2.06"/><path stroke="#3e6694" vector-effect="non-scaling-stroke" d="M481.35 3.32q-2.27-.74-3.94.24-1.41.82-1.76 3-.39 2.45 0 4.88"/><path stroke="#3a3639" stroke-opacity=".996" vector-effect="non-scaling-stroke" d="m475.65 11.44-.62 25.52"/><path stroke="#4f75a2" vector-effect="non-scaling-stroke" d="M503.78 143.69q1.48.8 2.55.77"/><path stroke="#9b9b9c" vector-effect="non-scaling-stroke" d="M506.33 144.46q2.32 1.61 4.03.92 1.54-.62 2.23-2.19.42-.98.39-2.94-.41-26.86-.31-53.7"/><path stroke="#3a3639" stroke-opacity=".996" vector-effect="non-scaling-stroke" d="m513.36 82.73.47 3.26M482.5 146.12q-2.16-.36-3.77.06M475.09 136.38l.09-19.92M475.13 116.06q.61-2.93-.11-5.61"/><path stroke="#8bc3fd" vector-effect="non-scaling-stroke" d="M481.35 3.32q-.17 2.21-.16 4.43.23 66.57.14 133.14 0 .07.03.71.1 2.1-2.07 1.79-2.33-.34-2.13.54"/><path stroke="#4f75a2" vector-effect="non-scaling-stroke" d="M477.16 143.93q-1.39-.63-1.38-3.18.33-57.58-.13-129.31"/><path stroke="#8793a3" vector-effect="non-scaling-stroke" d="M543.16 73.42q1.18 3.19 2.37 6.35 1.88 5.03 5.35 9.09.5.58 1.1.5"/><path stroke="#8bc3fd" vector-effect="non-scaling-stroke" d="m551.98 89.36.75.54q.41.3.4.81-.09 4.77-.08 9.54c0 1.33.2 3.46 1.71 4.12 3.01 1.32 4.94-1.09 4.95-3.95q.12-47.56-.15-95.02"/><path stroke="#8793a3" vector-effect="non-scaling-stroke" d="m559.56 5.4 16.97-.01"/><path stroke="#8bc3fd" vector-effect="non-scaling-stroke" d="m576.53 5.39-.01 137.44"/><path stroke="#d7e8f8" vector-effect="non-scaling-stroke" d="M576.52 142.83q-.27.14.07 1.27"/><path stroke="#768395" vector-effect="non-scaling-stroke" d="M576.59 144.1q-4.11-.96-7.5.88c-2.71 1.47-6.7.89-13.36 1.04q-6.54.14-8.92-5.57-2.97-7.12-6.68-13.87-8.3-15.09-11.95-22.2-.03-.05-2.43-4.27-2.32-4.08-3.65-7.53-1.62-4.23-6.18-10.75-.29-.42-.81-.37-.93.09-1.75 1.27"/><path stroke="#8793a3" vector-effect="non-scaling-stroke" d="m513.36 82.73-.69 3.82"/><path stroke="#d7e8f8" vector-effect="non-scaling-stroke" d="M512.67 86.55q-.32-3.45 1.09-6.73.2-.47.06-.96-.78-2.84-2.7-4.45"/><path stroke="#8bc3fd" vector-effect="non-scaling-stroke" d="M511.12 74.41q-.45-2.87-.81-6.14-.34-3.14-2.98-2.74c-1.49.23-1.88.97-2.18 2.4q-.95 4.47-.9 11.63.01 1.43.04 63.69 0 .35-.51.44"/><path stroke="#8793a3" vector-effect="non-scaling-stroke" d="m503.78 143.69-8.72 1.01q-.5.05-.99-.09-4.52-1.32-9.05-.88-.96.1-1.88 1.14a1.98 1.95 10.5 0 1-.8.54q-3.23 1.16-5.18-1.48"/><path stroke="#3a3639" stroke-opacity=".996" vector-effect="non-scaling-stroke" d="m585.91 138.79-.03 2.67M585.87 142.27q-.03.19-.15.24-.2.07-.27-.13-.12-.37-.07-.83"/><path stroke="#9b9b9c" vector-effect="non-scaling-stroke" d="m585.38 141.55-.25-132.61q-.01-.5-.35-.88-.57-.62-1.47-1.06"/><path stroke="#4f75a2" vector-effect="non-scaling-stroke" d="M583.31 7q.43-2.69-6.78-1.61M559.56 5.4q-1.91-.62-3.21.43-2.15 1.73-2.16 3.92-.16 36.56-.05 73.12.01 4.36-2.16 6.49"/><path stroke="#9fcbf7" vector-effect="non-scaling-stroke" d="m511.12 74.41-.03 68.09a1.14 1.14 0 0 1-1.22 1.14q-2.59-.19-3.54.82"/><path stroke="#8a8b8e" vector-effect="non-scaling-stroke" d="M585.38 141.55q.39 3.94-3.63 4.24-3.61.26-5.16-1.69"/><path stroke="#9fcbf7" vector-effect="non-scaling-stroke" d="m583.31 7 .02 135.24a1.43 1.43 0 0 1-1.2 1.42q-3.77.63-5.61-.83"/><path stroke="#3a3639" stroke-opacity=".996" vector-effect="non-scaling-stroke" d="M130.93 20.46q.22-2.68-.62-3.61"/><path stroke="#768395" vector-effect="non-scaling-stroke" d="M130.31 16.85q.37-1.79.77-3.57.52-2.27.33-3.61-.37-2.63-2.2-4.63"/><path stroke="#3e6694" vector-effect="non-scaling-stroke" d="M129.21 5.04q-2.84-.45-6.62.24"/><path stroke="#768395" vector-effect="non-scaling-stroke" d="M122.59 5.28 16.77 5.06"/><path stroke="#3e6694" vector-effect="non-scaling-stroke" d="M16.77 5.06q-.63-1.86-4.49.3-1.34.75-1.32 2.39.6 67.95-.04 135.61"/><path stroke="#768395" vector-effect="non-scaling-stroke" d="M10.92 143.36q3.06 2.98 6.13 2.35.52-.1 2.25-1.06c2.2-1.23 5.75-.87 8.35-.46q2.05.33 5.79.48 15.05.59 30.08 1.28"/><path stroke="#8bc3fd" vector-effect="non-scaling-stroke" d="m122.59 5.28-.07 137.37q0 .6.57.77 2.38.69 5.49.05a1.1 1.1 0 0 0 .88-1.08l-.25-137.35"/><path stroke="#8793a3" vector-effect="non-scaling-stroke" d="m130.31 16.85.04 115.37"/><path stroke="#768395" vector-effect="non-scaling-stroke" d="M130.35 132.22q.56 2.06 1.34 3.92.37.86.47 4.1.07 2.48-1.07 3.82-1.72 2.02-4.27 1.83-.49-.04-3.84-1.41-2.63-1.07-5.45-.42-2.16.5-4.22 1.54-.45.22-.96.23l-13.14.07"/><path stroke="#8793a3" vector-effect="non-scaling-stroke" d="M87.55 145.9q-1.11-.37-2.35.02"/><path stroke="#3a3639" stroke-opacity=".996" vector-effect="non-scaling-stroke" d="m130.92 114.79-.57 17.43"/><path stroke="#8bc3fd" vector-effect="non-scaling-stroke" d="m16.77 5.06.19 137.04a1.14 1.13-.8 0 1-1.11 1.13l-4.93.13"/><path stroke="#2d2e31" stroke-opacity=".996" vector-effect="non-scaling-stroke" d="m183.81 96.73.16.99M152.53 146.32l-1.81-.52"/><path stroke="#7a8b9b" vector-effect="non-scaling-stroke" d="m150.72 145.8 1.36-.14a1.5 1.48 20.3 0 0 .88-.4q1.32-1.24 2.7-1.38 3.54-.35 6.89.76.72.24 1.4.25 1.02 0 1.44-.17 4.69-1.89 9.05-.01"/><path stroke="#8e9394" vector-effect="non-scaling-stroke" d="M174.44 144.71q1.78 1.14 3.81 1.01 1.91-.13 3.07-1.84 1.66-2.44 1.49-5.48-.12-2.19-.12-2.31.15-29.26-.05-44.32-.05-4.35-1.77-8.97"/><path stroke="#426d9a" vector-effect="non-scaling-stroke" d="m180.87 82.8.09-6.91"/><path stroke="#8e9394" vector-effect="non-scaling-stroke" d="m180.96 75.89 2.09-6.34"/><path stroke="#7a8b9b" vector-effect="non-scaling-stroke" d="M183.05 69.55q2.07-1.44 3.09.05 2.71 3.97 4.54 8.42 2.86 6.92 3.5 8.53 1.29 3.28 4.19 8.47 2.5 4.48 11.85 24.23 5.07 10.73 7.78 17.33 1.65 4.04 2.79 5.33 2.13 2.41 5.28 3.29c1.88.53 4.29-.01 6.67-.24q.58-.05 5.03-.11 3.74-.06 7.48-.9 2.53-.57 5.06.77 1.75.93 2.72 1.03 1.38.14 2.94-.28.46-.12.7-.54l1.74-3.09"/><path stroke="#8e9394" vector-effect="non-scaling-stroke" d="M258.41 141.84q.63-7.26-.2-14.97-.48-4.55-.39-8.28.11-4.16.15-8.32.38-35.27.47-41.77.37-27.87-.24-50.69c-.05-2.06.26-3.84.45-5.93q.15-1.67-.79-3.59-.83-1.7-1.91-3.25"/><path stroke="#426d9a" vector-effect="non-scaling-stroke" d="m255.95 5.04-5.23.2"/><path stroke="#7a8b9b" vector-effect="non-scaling-stroke" d="m250.72 5.24-24.32.07"/><path stroke="#426d9a" vector-effect="non-scaling-stroke" d="M226.4 5.31q-3.2-1.44-5.26 1.34-1.3 1.77-1.21 4.54.36 9.88.17 16.92-.12 4.7.44 9.78.87 7.9 1.1 9.73.62 4.86.07 24.14-.15 5.12.04 10.24.16 4.49-2.5 7.97"/><path stroke="#7a8b9b" vector-effect="non-scaling-stroke" d="M219.25 89.97q-1.65-.38-2.44-1.79c-2.68-4.77-4.97-10.79-6.86-14.77-2.05-4.3-3.38-7.42-5.41-11.13q-4.3-7.88-9.85-20.21-4.07-9.06-14.09-29.94-1.94-4.06-6-5.73-2.3-.95-7.83-.95-8.32 0-16.45-.86"/><path stroke="#426d9a" vector-effect="non-scaling-stroke" d="M150.32 4.59q-5.18-.85-6.81 3.8"/><path stroke="#3e3d3f" stroke-opacity=".996" vector-effect="non-scaling-stroke" d="m143.51 8.39-.45 32.16"/><path stroke="#8bc3fd" vector-effect="non-scaling-stroke" d="m219.25 89.97.68 8.18q.22 2.75 3.13 3.3.17.03 1-.26 2.07-.73 2.08-2.93l.26-92.95M250.72 5.24q-.91 7.69-.9 19.01.07 91.97.03 118.86a.48.48 0 0 0 .48.48h5.2q.61 0 .84-.56l.41-1"/><path stroke="#d7e8f8" vector-effect="non-scaling-stroke" d="M256.78 142.03q.37.74 1.63-.19M183.05 69.55q1.39-4.94-2.14-9.05"/><path stroke="#8bc3fd" vector-effect="non-scaling-stroke" d="m180.91 60.5-.35-6.99q-.15-2.9-3.06-2.92h-.12q-2.92-.01-3.09 2.89-.31 5.02-.3 9.27.09 40.24.02 79.71 0 .91 1.08 1.13"/><path stroke="#d7e8f8" vector-effect="non-scaling-stroke" d="M175.09 143.59q-.81.36-.65 1.12"/><path stroke="#768395" vector-effect="non-scaling-stroke" d="M150.72 145.8q-4.07.54-6.22-1.42"/><path stroke="#8793a3" vector-effect="non-scaling-stroke" d="M144.5 144.38q-.12-.52-.35-.89"/><path stroke="#9fcbf7" vector-effect="non-scaling-stroke" d="M255.95 5.04q.31 3.73.54 7.31.23 3.42.24 7.31.06 48.35-.06 96.69 0 2.74.18 12.84.12 6.42-.07 12.84"/><path stroke="#8bc3fd" vector-effect="non-scaling-stroke" d="m150.32 4.59.05 137.06q0 2.03-2.03 1.97l-4.19-.13"/><path stroke="#4f75a2" vector-effect="non-scaling-stroke" d="M144.15 143.49q-.69-1.54-.54-3.36.21-2.71.21-2.78-.19-65.74-.04-102.35.07-16.12-.27-26.61"/><path stroke="#3a3639" stroke-opacity=".996" vector-effect="non-scaling-stroke" d="M144.5 144.38q-.38-.09-.64-.26-.24-.17-.35-.55-.56-2.02-.4-4.29"/><path stroke="#3e3d3f" stroke-opacity=".996" vector-effect="non-scaling-stroke" d="M143.21 134.57q.67-10.48-.15-20.87"/><path stroke="#9fcbf7" vector-effect="non-scaling-stroke" d="m180.91 60.5.05 15.39M180.87 82.8l.02 59.29q0 1.53-1.53 1.52l-4.27-.02"/><path stroke="#2d2e31" stroke-opacity=".996" vector-effect="non-scaling-stroke" d="m434.92 50.27-.12-5.05"/><path stroke="#768395" vector-effect="non-scaling-stroke" d="M434.8 45.22q6.13-2.01 14.06-.78a1.12 1.11 78.1 0 1 .76.5c1.16 1.81 5.03 1.66 6.85 1.35"/><path stroke="#8a8b8e" vector-effect="non-scaling-stroke" d="M456.47 46.29q2.09-.68 1.99-3.26"/><path stroke="#3e6694" vector-effect="non-scaling-stroke" d="m458.46 43.03.12-34.84"/><path stroke="#8a8b8e" vector-effect="non-scaling-stroke" d="m458.58 8.19-1.93-2.39"/><path stroke="#3e6694" vector-effect="non-scaling-stroke" d="M456.65 5.8q-1.83-1.56-6.81-.41"/><path stroke="#768395" vector-effect="non-scaling-stroke" d="M449.84 5.39q-37.96-.32-62.84-.12-2.98.02-4.84-.52"/><path stroke="#3e6694" vector-effect="non-scaling-stroke" d="M382.16 4.75q-5.98-1.59-6.04 5-.15 16.35-.02 32.71"/><path stroke="#3a3639" stroke-opacity=".996" vector-effect="non-scaling-stroke" d="m376.1 42.46-.24 1.58"/><path stroke="#8bc3fd" vector-effect="non-scaling-stroke" d="M449.84 5.39q-.29 28.93.01 37.35.14 3.82 4.92 2.7"/><path stroke="#d7e8f8" vector-effect="non-scaling-stroke" d="M454.77 45.44q-.13 1.31 1.7.85"/><path stroke="#7a8b9b" vector-effect="non-scaling-stroke" d="M434.8 45.22q-1.91 3.72-1.19 5.77c.5 1.45 1.01 2.58 1.02 4.07q.02 34.83-.01 47.23c0 2.44-.45 5.93.2 8.97a1.93 1.93 0 0 0 1.36 1.46q5.9 1.68 11.99-.19"/><path stroke="#8793a3" vector-effect="non-scaling-stroke" d="m448.17 112.53 1.2.46"/><path stroke="#8bc3fd" vector-effect="non-scaling-stroke" d="M449.37 112.99q-.07 12.82.04 25.54.01.13-.15 2.43-.17 2.59 1.63 2.82"/><path stroke="#d7e8f8" vector-effect="non-scaling-stroke" d="M450.89 143.78q-1.18.91-1.79.75"/><path stroke="#8793a3" vector-effect="non-scaling-stroke" d="M449.1 144.53q-3.43-.53-4.45-.13-3.81 1.52-7.89 1.27-.55-.04-1.97-.38-1-.25-2.04-.23-11.23.22-27.1-.2-.06 0-4.28.13-4.41.14-8.7-.99-2.09-.55-4.38.48-2.61 1.18-4.06 1.34-4.17.45-6.57-1.99"/><path stroke="#8bc3fd" vector-effect="non-scaling-stroke" d="m377.66 143.83 6.19-.7q.52-.06.52-.58l-.34-31.09"/><path stroke="#8793a3" vector-effect="non-scaling-stroke" d="M384.03 111.46q1.28-.1 4.11 1"/><path stroke="#8bc3fd" vector-effect="non-scaling-stroke" d="m388.14 112.46 12.6.23"/><path stroke="#768395" vector-effect="non-scaling-stroke" d="M400.74 112.69q1.01-.54 1.31-1.11"/><path stroke="#8793a3" vector-effect="non-scaling-stroke" d="m402.05 111.58.2-.36"/><path stroke="#8bc3fd" vector-effect="non-scaling-stroke" d="M402.25 111.22c3.73 1.54 5.18-.98 5.17-4.22q-.1-32.48-.05-56.52c.01-2.28.08-4.83-1.01-6.57q-1.33-2.14-3.88-.38"/><path stroke="#8793a3" vector-effect="non-scaling-stroke" d="M402.48 43.53q-1.4-.9-2.63-1-.79-.07-1.92.65-1.34.84-1.93.85-4.11.07-7.86.08-1.47.01-2.76.44-1.8.59-2.68.92-3.51 1.33-5.03-1.13"/><path stroke="#4f75a2" vector-effect="non-scaling-stroke" d="M402.48 43.53q1.21 3.74.47 5.42-1.11 2.53-1.17 4.58-.51 20.47-.1 48.11.02 1.93.26 4.78.2 2.39.31 4.8"/><path stroke="#3a3639" stroke-opacity=".996" vector-effect="non-scaling-stroke" d="M402.05 111.58q-.85-1.67-1.02-1.19"/><path stroke="#3e3d3f" stroke-opacity=".996" vector-effect="non-scaling-stroke" d="M449.8 112.03q-.57.37-1.63.5"/><path stroke="#9fcbf7" vector-effect="non-scaling-stroke" d="m458.58 8.19-.12 34.84M456.65 5.8q0 17.99-.06 34.95-.01 3.52-1.82 4.69"/><path stroke="#8bc3fd" vector-effect="non-scaling-stroke" d="M382.16 4.75q.31 14.72.13 35.5-.03 3.49-4.62 4.09"/><path stroke="#4f75a2" vector-effect="non-scaling-stroke" d="M377.67 44.34q-1.18-.25-1.57-1.88"/><path stroke="#3e6694" vector-effect="non-scaling-stroke" d="m400.74 112.69-5.29-.65"/><path stroke="#4f75a2" vector-effect="non-scaling-stroke" d="m390.04 111.97-1.9.49M384.03 111.46q-6.49 1.08-6.22 6 .79 14.83-.15 26.37"/><path stroke="#9b9b9c" vector-effect="non-scaling-stroke" d="M449.1 144.53q3.02 1.6 6.42 1.25 3.05-.32 3.07-3.8.09-11.28-.15-22.54 0-.08.14-2.36.19-3.02-2.42-4.47"/><path stroke="#4f75a2" vector-effect="non-scaling-stroke" d="M456.16 112.61q-.46-.57-1.38-.9-.7-.25-1.57-.01-1.89.54-3.84 1.29"/><path stroke="#3a3639" stroke-opacity=".996" vector-effect="non-scaling-stroke" d="m457.2 145.98-6.46.28M406.96 145.92q-.59-.11-1.17 0"/><path stroke="#9fcbf7" vector-effect="non-scaling-stroke" d="m456.16 112.61.09 29.54a1.38 1.38 0 0 1-1.31 1.39l-4.05.24"/><path stroke="#768395" vector-effect="non-scaling-stroke" d="M644.83 112.09q-3.09 1.46-5.94 1.01a1.17 1.16-.7 0 1-.96-.93q-.57-3.17-1.22-6.68-.52-2.81-.48-6.88.03-2.8 1.85-4.3 2.25-1.85 5.94-1.18.73.14 2.42 1.01 1.53.78 2.55.77 9.8-.08 19.24-.14 1.86-.01 2.29-.25 3.55-1.97 7.87-1.41c3.48.45 8.66 1.8 8.37-3.61q-.19-3.39-.14-31.98 0-2.62-.86-4.39-1.03-2.13-2.59-3.79"/><path stroke="#3e6694" vector-effect="non-scaling-stroke" d="M683.17 49.34q-.44-.53.09-2.2"/><path stroke="#768395" vector-effect="non-scaling-stroke" d="M683.26 47.14q1.54-1.96 2.57-4.39.91-2.14.89-4.89-.11-14.13-.05-28.26.01-1.34-.61-2.33-.67-1.08-1.56-1.93"/><path stroke="#3e6694" vector-effect="non-scaling-stroke" d="M684.5 5.34q-3.8-.68-6.72-.09"/><path stroke="#768395" vector-effect="non-scaling-stroke" d="M677.78 5.25q-3.13 1.91-5.7.93-1.92-.73-2.46-.79-1.3-.15-2.62-.15-28.38-.08-56.75.01-2.5.01-5.17-.34"/><path stroke="#3e6694" vector-effect="non-scaling-stroke" d="M605.08 4.91q-2.72-.75-5.22 1.16a1.56 1.54 79.4 0 0-.54.8q-.45 1.58-.44 3.42.37 63.29-.16 126.26a2.58 2.51 61.7 0 1-.37 1.29q-1.94 3.19.66 5.62"/><path stroke="#768395" vector-effect="non-scaling-stroke" d="M599.01 143.46q1.49 2.23 3.72 2.19"/><path stroke="#3a3639" stroke-opacity=".996" vector-effect="non-scaling-stroke" d="m602.73 145.65-1.7.46"/><path stroke="#8bc3fd" vector-effect="non-scaling-stroke" d="m677.78 5.25-.05 34.96q0 2.93 3.59 3.75.07.02.13 0 3.09-.78 3.09-3.45l-.04-35.17M683.26 47.14l-2.08-.35"/><path stroke="#7a8b9b" vector-effect="non-scaling-stroke" d="m681.18 46.79-5.58-5.51a2.2 2.2 0 0 0-2.71-.3q-1.29.8-4.28 1.99-1.73.68-4.57.63-.74-.01-9.79.51-1.66.1-7.27-.03c-1.85-.04-2.91-1.34-4.74-1.68q-4.34-.81-5.75 3.9-.23.77-.24 3.26 0 1.9 1.01 2.93 1.45 1.47 3.68 1.23c1.15-.12 2.47-.86 3.3-1.15q1.17-.42 2.57-.42 15.78.01 31.54-.1"/><path stroke="#8bc3fd" vector-effect="non-scaling-stroke" d="M678.35 52.05v36.17q0 3.28 3.26 3.7.38.05.41.04 3.05-.89 3.05-3.57-.01-1.09-.11-33.65-.02-5.14-5.19-4.01"/><path stroke="#7a8b9b" vector-effect="non-scaling-stroke" d="M679.77 50.73q.7-.84 1.42-1.21"/><path stroke="#8bc3fd" vector-effect="non-scaling-stroke" d="M681.19 49.52q1.05.29 1.98-.18M666.39 112.11q1.3.63 3.42.22"/><path stroke="#768395" vector-effect="non-scaling-stroke" d="M669.81 112.33q2.89 1.21 4.15.81 1.71-.52 4.03-.93"/><path stroke="#8bc3fd" vector-effect="non-scaling-stroke" d="m677.99 112.21-.1 30.8q0 .65.65.65h5.24a1.12 1.12 0 0 0 1.12-1.12l.12-30.06"/><path stroke="#768395" vector-effect="non-scaling-stroke" d="M685.02 112.48q1.67.18 1.67 2.1-.03 12.48 0 25.01.01 3.23-1.07 4.61-1.72 2.2-5.31 1.28c-1.15-.29-1.58-1.31-2.65-1.52-2.01-.39-4.62-.12-7 .66q-2.75.89-3.41.88-8.01-.13-15.93.19"/><path stroke="#8793a3" vector-effect="non-scaling-stroke" d="M651.32 145.69q-9.07-.74-18.12-.65c-3.21.03-6.83-.76-10.11-.23-2.14.34-4.45.65-6.69-.2-3.09-1.17-6.67-1.43-9.48.29q-1.14.7-1.98.77-1.11.09-2.21-.02"/><path stroke="#8bc3fd" vector-effect="non-scaling-stroke" d="M605.08 4.91q-1.24-.34-.7 2.01.27 1.14.27 1.97-.01 67 0 133.84a.66.66 0 0 1-.65.66l-4.99.07"/><path stroke="#3a3639" stroke-opacity=".996" vector-effect="non-scaling-stroke" d="m631.46 145.88 19.86-.19"/><path stroke="#3e6694" vector-effect="non-scaling-stroke" d="M685.02 112.48q.62-2.55-3.52-2.27-2.24.16-3.51 2M669.81 112.33l-1.27-.26"/><path stroke="#426d9a" vector-effect="non-scaling-stroke" d="m681.18 46.79.01 2.73M679.77 50.73q-1.2.43-1.42 1.32"/><path stroke="#3a3639" stroke-opacity=".996" vector-effect="non-scaling-stroke" d="M317.39 13.97q-1.43 13.5-.65 26.99.39 6.9.39 10.59 0 10.37-.01 10.63c-.03.73-.34 1.94-.74 2.61q-.4.66-.38 1.98.04 3.76.44 7.48.09.91-.66 4.3"/><path stroke="#8793a3" vector-effect="non-scaling-stroke" d="M315.78 78.55q-.41-20.54.28-41.05.18-5.52.05-20.68 0-.07.29-4.14.29-3.91-1.85-7.51"/><path stroke="#4f75a2" vector-effect="non-scaling-stroke" d="m314.55 5.17-7.53.26"/><path stroke="#8793a3" vector-effect="non-scaling-stroke" d="M307.02 5.43q-5.57.02-11.19-.03-2.59-.02-7.14.53-3.57.42-7.18.31-.51-.02-1.01.53"/><path stroke="#4f75a2" vector-effect="non-scaling-stroke" d="M280.5 6.77c-3.05-.44-4.64 1.95-5.04 4.73-.29 2.03 1.01 4.96.93 6.98q-.63 15.67-.54 34.97.01 2.15-.17 6.36-.13 2.83-.03 6.43.27 9.06.27 9.12.14 23.36.02 31.64-.08 4.87-.48 9.71-.48 5.8-.42 10.28.09 6-.83 12.22"/><path stroke="#3a3639" stroke-opacity=".996" vector-effect="non-scaling-stroke" d="m274.15 124.95-.04-8.51"/><path stroke="#8bc3fd" vector-effect="non-scaling-stroke" d="M314.55 5.17q-.25 52.16-.18 104.07 0 2.74-2.33 3.3c-2.47.6-4.14-1.04-4.15-3.51q-.17-88.8.09-101.51.02-.76.12-1.54.07-.53-.46-.62-.26-.04-.62.07"/><path stroke="#768395" vector-effect="non-scaling-stroke" d="M315.78 78.55q.01 14.21-.18 28.45-.03 2.49.93 4.82.19.47.65.69 1.98.96 3.32.8 1.17-.14 4.56-1.23"/><path stroke="#8793a3" vector-effect="non-scaling-stroke" d="m350.24 112.06 9.48 2.21"/><path stroke="#8bc3fd" vector-effect="non-scaling-stroke" d="M359.72 114.27q-.15 19.77.04 28.45.01.46.81.87"/><path stroke="#d7e8f8" vector-effect="non-scaling-stroke" d="M360.57 143.59q-.62.62-.38 1.25"/><path stroke="#7a8b9b" vector-effect="non-scaling-stroke" d="M360.19 144.84q-2.41-1.47-5.11-.72-1.7.48-3.39 1.04-1.67.55-3.44.45-4.69-.25-9.31.24"/><path stroke="#8793a3" vector-effect="non-scaling-stroke" d="M322.8 145.93q-.8-.5-2.05-.27-.91.17-1.54-.27-.41-.29-.91-.28-10.1.14-22.44-.31c-4.08-.15-8.47-2.28-12.41-.12q-1.73.94-2.61 1.05-1.43.19-2.87.11"/><path stroke="#8bc3fd" vector-effect="non-scaling-stroke" d="M277.97 145.84q-2.31-.21-2.76-1.37a.71.71 0 0 1 .66-.96h4.2a1.1 1.09 90 0 0 1.09-1.1q-.09-66.33-.01-132.85 0-1.15-.65-2.79"/><path stroke="#4f75a2" vector-effect="non-scaling-stroke" d="M277.97 145.84q1.75.87 4.55.49"/><path stroke="#9b9b9c" vector-effect="non-scaling-stroke" d="m368.8 115.48-.01 4.31"/><path stroke="#9fcbf7" vector-effect="non-scaling-stroke" d="m368.79 119.79-.05 6.7"/><path stroke="#9b9b9c" vector-effect="non-scaling-stroke" d="m368.74 126.49.14 6.23"/><path stroke="#8e9394" vector-effect="non-scaling-stroke" d="M368.98 142.05q-1.1.96-2.12 2.01-1.23 1.27-2.38 1.51-2.21.45-4.29-.73"/><path stroke="#3e3d3f" stroke-opacity=".996" vector-effect="non-scaling-stroke" d="m350.54 145.83-10.6-.02"/><path stroke="#9b9b9c" vector-effect="non-scaling-stroke" d="m369 115.33-2.38-.62"/><path stroke="#4f75a2" vector-effect="non-scaling-stroke" d="M366.62 114.71q.22-.86-1.37-1.25-3.15-.77-5.53.81"/><path stroke="#9fcbf7" vector-effect="non-scaling-stroke" d="m366.62 114.71-.05 27.86a.93.92-5.2 0 1-.76.91q-2.65.5-5.24.11"/><path stroke="#4f75a2" vector-effect="non-scaling-stroke" d="m368.93 119.73-.14.06M368.87 126.47l-.13.02"/><path stroke="#8a8b8e" vector-effect="non-scaling-stroke" d="M774.87 11.26q-.04-2.34-2.19-4.92"/><path stroke="#3e6694" vector-effect="non-scaling-stroke" d="M772.68 6.34q-.8-2.06-6.32-1.05"/><path stroke="#768395" vector-effect="non-scaling-stroke" d="m766.36 5.29-50.08.15a1.59 1.53 25.7 0 0-.88.29q-1.57 1.11-3.06.86a1.57 1.54-21.8 0 1-.67-.28q-1.68-1.23-3.61-1.23"/><path stroke="#3e6694" vector-effect="non-scaling-stroke" d="M708.06 5.08q-2.17-.53-3.31.44-2.44 2.08-2.63 5.69"/><path stroke="#8bc3fd" vector-effect="non-scaling-stroke" d="M708.06 5.08q-.36.6-.14 1.04l.42.87q.2 1.12.22 2.26.22 16.77-.13 33.51"/><path stroke="#9fcbf7" vector-effect="non-scaling-stroke" d="m708.43 42.76-3.9 2.14"/><path stroke="#4f75a2" vector-effect="non-scaling-stroke" d="M704.53 44.9q-2.02-1.73-2.13-3.9-.32-6.33.07-17.25.16-4.59-.25-9.23"/><path stroke="#3e6694" vector-effect="non-scaling-stroke" d="m702.22 14.52-.11-1.01M702.11 13.21l-.01-1.75"/><path stroke="#d7e8f8" vector-effect="non-scaling-stroke" d="M774.76 11.69q-.17 4.47-.2 8.91-.01 2.02-.57 3.85-.55 1.78-1.18 3.76"/><path stroke="#9fcbf7" vector-effect="non-scaling-stroke" d="m772.68 6.34.13 21.87"/><path stroke="#8bc3fd" vector-effect="non-scaling-stroke" d="M772.81 28.21q-.62 1.84.27 4.29.41 1.14-.08 3.89-.41 2.24-.43 3.81-.35 31.96.31 64.09"/><path stroke="#4f75a2" vector-effect="non-scaling-stroke" d="m772.88 104.29.05 4.34"/><path stroke="#8bc3fd" vector-effect="non-scaling-stroke" d="M766.36 5.29q-.7 5.55-.62 15.21.11 12.57.03 85c0 3.17 1.39 7.32 5.35 4.17q.84-.67 1.81-1.04"/><path stroke="#8793a3" vector-effect="non-scaling-stroke" d="M772.93 108.63q1.64 4.52 4.82 5.8 2.64 1.07 5.12-.99"/><path stroke="#8bc3fd" vector-effect="non-scaling-stroke" d="M782.87 113.44q.46 14.28.18 28.56-.02 1.1 1.01 1.65"/><path stroke="#d7e8f8" vector-effect="non-scaling-stroke" d="m784.06 143.65-1.38.96"/><path stroke="#768395" vector-effect="non-scaling-stroke" d="M782.68 144.61q-3.38-1.11-6.81.09-2.39.84-3.95.86-4.48.05-8.94.11"/><path stroke="#8793a3" vector-effect="non-scaling-stroke" d="M762.98 145.67q-5.51-.25-10.99-.63-5.73-.4-10.98-.2-4.94.19-9.89-.17-1.37-.11-6.22.15-4.24.23-8.38-.93-2.77-.78-4.86 1.25a1.82 1.79-72.9 0 1-.87.47q-4.74 1.02-7.03-1.56"/><path stroke="#8bc3fd" vector-effect="non-scaling-stroke" d="M703.76 144.05q1.68-1.03 4.64-.63a.61.61 0 0 0 .69-.61q-.11-13.38-.01-26.86.01-.83-.23-2.38-.28-1.88.35-2.45"/><path stroke="#8793a3" vector-effect="non-scaling-stroke" d="M709.2 111.12q1.53 1.24 2.08 1.3 5.88.54 9.41 1.48 1.73.47 4.86-1.22"/><path stroke="#8bc3fd" vector-effect="non-scaling-stroke" d="M725.55 112.68c1.53 2.22 4.46 2.5 5.64-.11q.57-1.26.58-2.32.13-11.97.05-63.75 0-1.58-.58-2.95-.61-1.44-2.07-1.88-2.98-.89-4.01 2.64"/><path stroke="#8793a3" vector-effect="non-scaling-stroke" d="m725.16 44.31-12.07 1.02"/><path stroke="#d7e8f8" vector-effect="non-scaling-stroke" d="M713.09 45.33q.96-.66 1.03-1.26.07-.54-.48-.62l-5.21-.69"/><path stroke="#9b9b9c" vector-effect="non-scaling-stroke" d="M704.53 44.9q2.85 1.96 8.56.43"/><path stroke="#4f75a2" vector-effect="non-scaling-stroke" d="m725.16 44.31 1.23 2.01q.26.42.21.92-1.07 11.75-.82 24.88.08 4.33-.05 6.81-.14 2.73-.04 6.84.16 6.73.11 10.2-.14 9.34-.14 12.28.01 2.35-.11 4.43M709.2 111.12q-3.29-1.24-4.45 1.11-1.88 3.81-1.25 8 .6 3.97.51 7.96-.03 1.08-1.01 6.53-.91 5.08.76 9.33"/><path stroke="#3a3639" stroke-opacity=".996" vector-effect="non-scaling-stroke" d="m762.98 145.67-19.28.17M702.22 14.52l-.14 12.62"/><path stroke="#768395" vector-effect="non-scaling-stroke" d="m774.89 23.08-.11 1.51"/><path stroke="#8793a3" vector-effect="non-scaling-stroke" d="M774.78 24.59q-1.78 4.55-1.67 8.17.26 8.18.24 10.83-.04 4.54.33 10.81.41 7 .15 18.35-.35 15.7-.95 31.54"/><path stroke="#3a3639" stroke-opacity=".996" vector-effect="non-scaling-stroke" d="M792.92 119.79q-.01 1.65-1.53 2.79"/><path stroke="#9b9b9c" vector-effect="non-scaling-stroke" d="M791.39 122.58q1.24-4.31.98-8.6-.03-.5-.34-.88-1.62-1.97-3.4-2.48"/><path stroke="#4f75a2" vector-effect="non-scaling-stroke" d="M788.63 110.62q-1.73.46-3.11 1.45-.41.29-.9.38-1.75.33-1.75.99"/><path stroke="#9fcbf7" vector-effect="non-scaling-stroke" d="M788.63 110.62q1.12 1.19 1.18 2.39.7 14.62.08 29.39a1.12 1.12 0 0 1-1.06 1.06l-4.77.19"/><path stroke="#8a8b8e" vector-effect="non-scaling-stroke" d="M791.39 122.58q-.32 2.76-.08 4.11 1.02 5.68 1.34 10.45.29 4.19-1.83 6.8-1.38 1.69-3.8 1.79-2.28.09-4.34-1.12"/><path stroke="#3a3639" stroke-opacity=".996" vector-effect="non-scaling-stroke" d="m774.86 31.28-.08-6.69"/><path stroke="#3e3d3f" stroke-opacity=".996" vector-effect="non-scaling-stroke" d="m898.15 16.11-.53-8.31"/><path stroke="#8e9394" vector-effect="non-scaling-stroke" d="M897.62 7.8q-.78-.32-1.41-1.13"/><path stroke="#426d9a" vector-effect="non-scaling-stroke" d="M896.21 6.67q-.41-1.4-1.78-1.54-2.84-.31-5.62.19"/><path stroke="#7a8b9b" vector-effect="non-scaling-stroke" d="M888.81 5.32q-33.48-.16-66.91-.02-.1 0-4.78.25-3.05.16-6.15-.42"/><path stroke="#426d9a" vector-effect="non-scaling-stroke" d="M810.97 5.13q-2.78-.23-4.28 1.75-.98 1.29-.96 4 .32 36.69.15 73.2"/><path stroke="#7a8b9b" vector-effect="non-scaling-stroke" d="M805.88 84.08q3 1.87 4.87 1.54 5.02-.86 10.03-.38 7.36.71 7.42.71 17.69.89 22.31 1.15 2.61.15 5.7-1.39 2.45-1.22 5.32.91"/><path stroke="#426d9a" vector-effect="non-scaling-stroke" d="M861.53 86.62q1.29 4.93.45 10.42-.33 2.15.03 4.39.91 5.56-.64 10.84"/><path stroke="#7a8b9b" vector-effect="non-scaling-stroke" d="M861.37 112.27q-3.1 1.51-7.86.16"/><path stroke="#426d9a" vector-effect="non-scaling-stroke" d="M853.51 112.43q.86.4 1.05-.14"/><path stroke="#3e3d3f" stroke-opacity=".996" vector-effect="non-scaling-stroke" d="M854.56 112.29q1.5.32 1.71-.25"/><path stroke="#8bc3fd" vector-effect="non-scaling-stroke" d="M810.97 5.13q.57 2.81.58 4.62.08 21.47.14 67.5.01 3.65-.96 5.73-.74 1.6-4.85 1.1"/><path stroke="#3a3639" stroke-opacity=".996" vector-effect="non-scaling-stroke" d="M898.45 21.9q-1.03 1.3-.82 4.43"/><path stroke="#4f75a2" vector-effect="non-scaling-stroke" d="m852.53 112.13 2.03.16"/><path stroke="#9fcbf7" vector-effect="non-scaling-stroke" d="M896.21 6.67q-.13-.07-.25-.01-.3.14-.29.47.14 14.78-.01 30.62-.04 3.24-2.84 4.25a.67.65 86.9 0 0-.42.48q-.05.18.06.3"/><path stroke="#3e6694" vector-effect="non-scaling-stroke" d="m892.46 42.78-1.21-.32"/><path stroke="#4f75a2" vector-effect="non-scaling-stroke" d="M891.25 42.46q-.4-.36-.97-.31"/><path stroke="#8bc3fd" vector-effect="non-scaling-stroke" d="M890.28 42.15q.33.04.53-.05a.29.29 0 0 0 .01-.52q-1.9-.92-1.91-2.32-.09-17.09-.1-33.94"/><path stroke="#9b9b9c" vector-effect="non-scaling-stroke" d="m897.62 7.8.01 18.53"/><path stroke="#8a8b8e" vector-effect="non-scaling-stroke" d="M897.63 26.33q.18 5.88.25 11.86.03 2.71-2.81 4.8-.69.51-1.28.43-.69-.08-1.33-.64"/><path stroke="#8793a3" vector-effect="non-scaling-stroke" d="M890.28 42.15c-3.42-.53-7.64 0-10.03-.01q-14.71-.02-29.43.08-.13 0-3.53-.44-1.94-.25-3.9.65"/><path stroke="#768395" vector-effect="non-scaling-stroke" d="m843.39 42.43-1.92 13.95a2.85 2.84 4.2 0 0 2.8 3.23q10.31.08 26.65.3 1.94.03 4.63-.34c3.14-.44 6.01.31 9.11.29q2.29-.01 4.45.09"/><path stroke="#8bc3fd" vector-effect="non-scaling-stroke" d="M889.11 59.95v82q0 1.71 1.71 1.71h2.79q2.2 0 2.2-2.2V61.65q0-.19.17-.25.13-.05.26-.01"/><path stroke="#768395" vector-effect="non-scaling-stroke" d="M896.24 61.39c.79.49 1.25.98 1.36 1.97q.28 2.65.18 5.29-.16 4.6-.16 4.7-.06 35.73.24 66.59.02 2.35-.6 3.49-.94 1.7-2.9 2.39"/><path stroke="#8793a3" vector-effect="non-scaling-stroke" d="M894.36 145.82q-2.07.1-3.62-.63-2.76-1.32-2.81-1.33c-2.27-.43-4.13.33-6.35 1.12q-1.4.51-3.22.41c-4.05-.21-6.68-.38-10.96.06q-4.56.47-9.15.25-.31-.02-.29.25"/><path stroke="#768395" vector-effect="non-scaling-stroke" d="M856.79 145.91q-.41-.14-.83 0M855.55 145.93q-2.06-.44-4.18-.29-.08 0-.23-.05-.14-.05-.15-.19-.02-.29-.3-.3-2.03-.08-8.48.01-4.96.07-8.35-.25-4.07-.37-7.88 0-1.69.17-3.37-.32-1.19-.35-3.36-.74-3.82-.68-6.47.87-2.13 1.25-3.67 1.26-2.41.02-3.84-1.86"/><path stroke="#8bc3fd" vector-effect="non-scaling-stroke" d="M805.27 144.07q1.63-.9 4.1-.72a1 1 0 0 0 1.07-.99q.2-15.48.02-30.61-.01-.42.84-.63"/><path stroke="#768395" vector-effect="non-scaling-stroke" d="m811.3 111.12 1.45 1.2"/><path stroke="#8bc3fd" vector-effect="non-scaling-stroke" d="M812.75 112.32q.99.39 2.25.39 14-.02 28-.12.64 0 .72-.37"/><path stroke="#768395" vector-effect="non-scaling-stroke" d="m843.72 112.22 2.96-.13"/><path stroke="#8bc3fd" vector-effect="non-scaling-stroke" d="m847.21 112.14 6.3.29M861.37 112.27c2.67 1.93 6.1 2.02 6.18-2.02q.17-8.65.16-17.3c0-1.96.31-5.2-.61-7.19-.78-1.68-3.51-2.51-4.85-.8q-.63.8-.72 1.66"/><path stroke="#3a3639" stroke-opacity=".996" vector-effect="non-scaling-stroke" d="m888.5 42.92 2.75-.46M853.16 42.92l-6.68-.04M846.33 42.87q-.45-.72-2.94-.44M874.66 145.91l-9.34-.01"/><path stroke="#3e6694" vector-effect="non-scaling-stroke" d="m823.54 112.04 2.17.03M842.05 112.09l1.67.13M814.65 112.08l-1.9.24M811.3 111.12q-1.35-.88-2.98-.79-1.38.08-2.48 1.4-1.88 2.24-1.81 4.31.36 12.15-.28 22.2-.25 4.03 1.52 5.83"/><path stroke="#2d2e31" stroke-opacity=".996" vector-effect="non-scaling-stroke" d="m886.4 59.14 8.9.02"/><path stroke="#3a3639" stroke-opacity=".996" vector-effect="non-scaling-stroke" d="m890.47 146.29 3.89-.47"/><path stroke="#3e6694" vector-effect="non-scaling-stroke" d="M896.24 61.39q-.22-1.14-1.6-1.56-2.84-.87-5.53.12"/><path stroke="#8bc3fd" vector-effect="non-scaling-stroke" d="M52.42 46.91a3.23 3.23 0 0 0-3.23-3.23h-.12a3.23 3.23 0 0 0-3.23 3.23v49.36a3.23 3.23 0 0 0 3.23 3.23h.12a3.23 3.23 0 0 0 3.23-3.23V46.91"/><path stroke="#8793a3" vector-effect="non-scaling-stroke" d="M90 46.09q-4.85 1.21-9.82.98-3.63-.16-5.84.11c-5.52.67-9.78 1.17-15.08-.09q-1.43-.34-3.67.65c-2.23.98-1.87 2.94-1.84 5.51q.27 22.14-.04 43.74a3.89 3.89 0 0 0 3.88 3.95l36.88.05"/><path stroke="#8bc3fd" vector-effect="non-scaling-stroke" d="M94.47 100.99q3.32 1.94 4.88-.33.83-1.2.84-3.85.1-36.57-.15-47.29c-.07-2.86-.9-6.38-4.2-5.3a1.49 1.45-80.8 0 0-.77.57l-.57.83q-.31.46-.84.46l-3.66.01"/><path stroke="#4f75a2" vector-effect="non-scaling-stroke" d="M94.47 100.99q.92-5.15.6-9.92-.46-6.94-.44-8.18.3-16.52.91-31.21l.15-1.49q.3-3.11-2.45-3.9-.73-.21-3.24-.2"/><path stroke="#8bc3fd" vector-effect="non-scaling-stroke" d="M432.75 45.28a3.42 3.42 0 0 0-3.42-3.42h-.12a3.42 3.42 0 0 0-3.42 3.42v63.52a3.42 3.42 0 0 0 3.42 3.42h.12a3.42 3.42 0 0 0 3.42-3.42V45.28"/><path stroke="#768395" vector-effect="non-scaling-stroke" d="M673.886 35.977a3.92 1.68 92.4 0 0 1.843-3.847 3.92 1.68 92.4 0 0-1.515-3.987 3.92 1.68 92.4 0 0-1.843 3.847 3.92 1.68 92.4 0 0 1.515 3.987"/><path stroke="#8bc3fd" vector-effect="non-scaling-stroke" d="M631.255 52.9a6.69 3.86 90.3 0 0 3.895-6.67 6.69 3.86 90.3 0 0-3.825-6.71 6.69 3.86 90.3 0 0-3.895 6.67 6.69 3.86 90.3 0 0 3.825 6.71M634.786 94.772a3.33 3.33 0 0 0-3.347-3.313l-.24.002a3.33 3.33 0 0 0-3.313 3.347l.088 16.7a3.33 3.33 0 0 0 3.347 3.313l.24-.002a3.33 3.33 0 0 0 3.313-3.347l-.088-16.7M841.07 42.93a3.2 3.2 0 0 0-3.227-3.171l-.34.003a3.2 3.2 0 0 0-3.172 3.228l.098 11.24a3.2 3.2 0 0 0 3.228 3.171l.34-.003a3.2 3.2 0 0 0 3.172-3.228l-.098-11.24"/></g><path fill="#29262b" fill-opacity=".996" d="M543.39 71.87q-.41.77-.23 1.55-3.84-7.44-7.57-14.93-.76-1.54-1.39-2.72-4.83-9.02-9.38-19.24-1.83-4.11-3.52-7.31-2.92-5.51-3.7-7.42-2.34-5.73-5.94-12.48-2.24-4.19-7.6-4.15-11.22.07-18.33.21c-2.14.05-2.63-1.53-4.38-2.06q-2.27-.74-3.94.24-1.41.82-1.76 3-.39 2.45 0 4.88l-.62 25.52q0-11.17-.06-22.34-.01-1.22-.43-2.57c-.41-1.32-.84-2.35-.49-3.41q.77-2.29 1.11-4.78.07-.51.51-.78 2.32-1.4 5.07-1.09c2.21.25 3.46 1.97 5.7 1.97q9.47.02 20.31-.03c2.07-.01 3.67 1.79 5.23 3.56q1.19 1.35 2 3.12 3.45 7.56 3.72 8.25 1.32 3.42 3.8 8.22 1.94 3.75 4.32 9.33 1.96 4.59 4.34 9.31 6.62 13.1 13.23 26.15ZM130.93 20.46q.22-2.68-.62-3.61.37-1.79.77-3.57.52-2.27.33-3.61-.37-2.63-2.2-4.63-2.84-.45-6.62.24L16.77 5.06q-.63-1.86-4.49.3-1.34.75-1.32 2.39.6 67.95-.04 135.61 3.06 2.98 6.13 2.35.52-.1 2.25-1.06c2.2-1.23 5.75-.87 8.35-.46q2.05.33 5.79.48 15.05.59 30.08 1.28-16.56 0-33.15-.05-1.62 0-3.09-.34c-1.37-.31-2.61-.82-4.05-.57q-3.06.52-6.47 1.65-1.31.43-1.82.25c-1.57-.54-3.56-1.7-4.51-3.1q-.43-.63-.44-3.04-.39-92.31.03-134.45.02-1.42 2.02-2.36 3.19-1.51 6.28-.56 1.95.59 4.16.59 68.62-.02 105.27 0 .39 0 1.2.17.67.14 1.05.53 1.31 1.32 2.49 2.73a1.69 1.65-69.1 0 1 .38.88q.25 1.99.05 4.31-.09 1.08-1.24 3.8-.82 1.94-.75 4.07Z"/><path fill="#313537" fill-opacity=".996" d="m183.81 96.73.16.99q.26 34.06-.13 43.14-.03.72-1.5 3.46-.74 1.37-2.15 1.84-2.33.76-2.93.62-4.69-1.14-6.79-1.82-.48-.16-.95.02-2.61 1-5.79 1.04-.52.01-4.39-.8-3.41-.72-6.81 1.1l-1.81-.52 1.36-.14a1.5 1.48 20.3 0 0 .88-.4q1.32-1.24 2.7-1.38 3.54-.35 6.89.76.72.24 1.4.25 1.02 0 1.44-.17 4.69-1.89 9.05-.01 1.78 1.14 3.81 1.01 1.91-.13 3.07-1.84 1.66-2.44 1.49-5.48-.12-2.19-.12-2.31.15-29.26-.05-44.32-.05-4.35-1.77-8.97l.09-6.91 2.09-6.34q2.07-1.44 3.09.05 2.71 3.97 4.54 8.42 2.86 6.92 3.5 8.53 1.29 3.28 4.19 8.47 2.5 4.48 11.85 24.23 5.07 10.73 7.78 17.33 1.65 4.04 2.79 5.33 2.13 2.41 5.28 3.29c1.88.53 4.29-.01 6.67-.24q.58-.05 5.03-.11 3.74-.06 7.48-.9 2.53-.57 5.06.77 1.75.93 2.72 1.03 1.38.14 2.94-.28.46-.12.7-.54l1.74-3.09q.63-7.26-.2-14.97-.48-4.55-.39-8.28.11-4.16.15-8.32.38-35.27.47-41.77.37-27.87-.24-50.69c-.05-2.06.26-3.84.45-5.93q.15-1.67-.79-3.59-.83-1.7-1.91-3.25l-5.23.2-24.32.07q-3.2-1.44-5.26 1.34-1.3 1.77-1.21 4.54.36 9.88.17 16.92-.12 4.7.44 9.78.87 7.9 1.1 9.73.62 4.86.07 24.14-.15 5.12.04 10.24.16 4.49-2.5 7.97-1.65-.38-2.44-1.79c-2.68-4.77-4.97-10.79-6.86-14.77-2.05-4.3-3.38-7.42-5.41-11.13q-4.3-7.88-9.85-20.21-4.07-9.06-14.09-29.94-1.94-4.06-6-5.73-2.3-.95-7.83-.95-8.32 0-16.45-.86-5.18-.85-6.81 3.8l-.45 32.16-.02-34.4a.83.82-19.3 0 1 .32-.65q4.03-3.23 8.7-2.19 3.04.68 4.63.69 4.99.05 11.7-.06 4.93-.08 7.59 1.4 3.23 1.81 5.38 5.94 7.55 14.54 12.5 26.45 4.32 10.39 7.81 16.83 1.14 2.1 8.29 16.64 2.11 4.3 3.21 6.71.13.29 1.73 4.47.77 2 2.29 4.14a1.34 1.33 38.5 0 0 2.32-.26c1.4-3.36 1.48-5.6 1.02-9.37q-.69-5.64-.47-6.65.92-4.2.43-7.3-.49-3.15-.03-5.4.88-4.38-.64-11.01-.83-3.6-.83-6.58-.01-21.59.02-30.04.01-2.56 1.15-3.68c1.53-1.49 3.49-3.31 5.88-2.7q1.6.41 2.32.41 20.72.03 27.2.07a2.16 2.16 0 0 1 1.81.98q.9 1.4 2.02 2.99.61.87.61 3.35-.05 36.23-.03 105.18 0 1.71-.62 3.77-.52 1.74.01 3.52.55 1.86.57 3.36.07 6.45.01 12.12c-.02 2.36-.84 3.63-2.12 5.88q-.24.43-.71.61c-2.3.84-3.26 1.36-5.4.6-2.41-.85-4.26-1.77-6.19-1.41-1.07.2-2.35.92-3.63.93q-8.6.12-17.72.04-.52-.01-.91-.35-2.38-2.05-4.42-4.48-1.22-1.46-2.49-5.08-1.65-4.7-2-5.38-1.54-3.02-6.98-15.26-1.52-3.43-9.23-18.32-3.25-6.29-5.41-11.24-3.52-8.07-5.12-11.41-.88-1.85-2-2.82a.98.98 0 0 0-1.55.37q-1.15 2.79-1.87 5.78-.37 1.55.51 5.98 1.26 6.38 1.11 13.01Z"/><path fill="#29262b" fill-opacity=".996" d="m434.92 50.27-.12-5.05q6.13-2.01 14.06-.78a1.12 1.11 78.1 0 1 .76.5c1.16 1.81 5.03 1.66 6.85 1.35q2.09-.68 1.99-3.26l.12-34.84-1.93-2.39q-1.83-1.56-6.81-.41-37.96-.32-62.84-.12-2.98.02-4.84-.52-5.98-1.59-6.04 5-.15 16.35-.02 32.71l-.24 1.58q-.79-2.14-.8-3.79-.13-28.36 0-30.75c.2-3.45 2.21-7.15 6.19-6.39 1.8.34 3.12.88 5.37.88q36.48-.06 68.57.02a3.77 3.76.2 0 1 3.76 3.78q-.07 14.38.01 28.51c.01 1.24.27 2.08.62 3.3q.15.51-.03 1-.77 2.19-.49 4.99.05.51-.31.88-1.42 1.44-3.54 1.42-3.79-.03-5.73-1.47-1.99-1.47-3.98-1.48-3.59-.02-6.02 0-4.93.03-4.56 5.33Z"/><path fill="#53a5fc" d="M481.35 3.32q-.17 2.21-.16 4.43.23 66.57.14 133.14 0 .07.03.71.1 2.1-2.07 1.79-2.33-.34-2.13.54-1.39-.63-1.38-3.18.33-57.58-.13-129.31-.39-2.43 0-4.88.35-2.18 1.76-3 1.67-.98 3.94-.24Z"/><path fill="#29262b" fill-opacity=".996" d="M644.83 112.09q-3.09 1.46-5.94 1.01a1.17 1.16-.7 0 1-.96-.93q-.57-3.17-1.22-6.68-.52-2.81-.48-6.88.03-2.8 1.85-4.3 2.25-1.85 5.94-1.18.73.14 2.42 1.01 1.53.78 2.55.77 9.8-.08 19.24-.14 1.86-.01 2.29-.25 3.55-1.97 7.87-1.41c3.48.45 8.66 1.8 8.37-3.61q-.19-3.39-.14-31.98 0-2.62-.86-4.39-1.03-2.13-2.59-3.79-.44-.53.09-2.2 1.54-1.96 2.57-4.39.91-2.14.89-4.89-.11-14.13-.05-28.26.01-1.34-.61-2.33-.67-1.08-1.56-1.93-3.8-.68-6.72-.09-3.13 1.91-5.7.93-1.92-.73-2.46-.79-1.3-.15-2.62-.15-28.38-.08-56.75.01-2.5.01-5.17-.34-2.72-.75-5.22 1.16a1.56 1.54 79.4 0 0-.54.8q-.45 1.58-.44 3.42.37 63.29-.16 126.26a2.58 2.51 61.7 0 1-.37 1.29q-1.94 3.19.66 5.62 1.49 2.23 3.72 2.19l-1.7.46q-2.87-.63-4.52-3.4c-1.4-2.36.18-4.37 1.07-6.47q.36-.86.36-3.24 0-62.76.01-126.65a1.39 1.38 75 0 1 .69-1.2c1.29-.75 4.71-2.62 6.43-1.87.8.35 2.47.7 3.62.7q40.75-.02 59.92 0 1.79 0 2.73.34 1.13.41 2.12.66a1.87 1.77-44.6 0 0 .99-.02q5.24-1.57 9.41-.81 1.53.29 3.32 2.54.88 1.1.8 3.63-.04 1.23-.06 27.79 0 2.96-.87 4.89-1.08 2.37-1.9 4.7a2.61 2.6-50.5 0 0 .21 2.2c1.53 2.59 2.61 4.55 2.62 7.78q.07 16.21.03 29.56-.01 3.97-.83 5.41-1.19 2.09-3.75 2.37-.94.1-4.06-.79-4.28-1.21-8.03 1.37a1.98 1.92 26.9 0 1-1.12.35q-12.77-.03-21.45-.06-1.64 0-3.48-.82c-1.51-.68-3.25-1.55-4.67-.82-3.44 1.79-4.19 3.76-3.24 7.64q1.06 4.33 1.71 9.05a1.28 1.28 0 0 0 1.26 1.11l4.48.04Z"/><path fill="#c3e0fe" d="M543.16 73.42q1.18 3.19 2.37 6.35 1.88 5.03 5.35 9.09.5.58 1.1.5l.75.54q.41.3.4.81-.09 4.77-.08 9.54c0 1.33.2 3.46 1.71 4.12 3.01 1.32 4.94-1.09 4.95-3.95q.12-47.56-.15-95.02l16.97-.01-.01 137.44q-.27.14.07 1.27-4.11-.96-7.5.88c-2.71 1.47-6.7.89-13.36 1.04q-6.54.14-8.92-5.57-2.97-7.12-6.68-13.87-8.3-15.09-11.95-22.2-.03-.05-2.43-4.27-2.32-4.08-3.65-7.53-1.62-4.23-6.18-10.75-.29-.42-.81-.37-.93.09-1.75 1.27l-.69 3.82q-.32-3.45 1.09-6.73.2-.47.06-.96-.78-2.84-2.7-4.45-.45-2.87-.81-6.14-.34-3.14-2.98-2.74c-1.49.23-1.88.97-2.18 2.4q-.95 4.47-.9 11.63.01 1.43.04 63.69 0 .35-.51.44l-8.72 1.01q-.5.05-.99-.09-4.52-1.32-9.05-.88-.96.1-1.88 1.14a1.98 1.95 10.5 0 1-.8.54q-3.23 1.16-5.18-1.48-.2-.88 2.13-.54 2.17.31 2.07-1.79-.03-.64-.03-.71.09-66.57-.14-133.14-.01-2.22.16-4.43c1.75.53 2.24 2.11 4.38 2.06q7.11-.14 18.33-.21 5.36-.04 7.6 4.15 3.6 6.75 5.94 12.48.78 1.91 3.7 7.42 1.69 3.2 3.52 7.31 4.55 10.22 9.38 19.24.63 1.18 1.39 2.72 3.73 7.49 7.57 14.93Z"/><path fill="#4a4547" fill-opacity=".996" d="M317.39 13.97q-1.43 13.5-.65 26.99.39 6.9.39 10.59 0 10.37-.01 10.63c-.03.73-.34 1.94-.74 2.61q-.4.66-.38 1.98.04 3.76.44 7.48.09.91-.66 4.3-.41-20.54.28-41.05.18-5.52.05-20.68 0-.07.29-4.14.29-3.91-1.85-7.51l-7.53.26q-5.57.02-11.19-.03-2.59-.02-7.14.53-3.57.42-7.18.31-.51-.02-1.01.53c-3.05-.44-4.64 1.95-5.04 4.73-.29 2.03 1.01 4.96.93 6.98q-.63 15.67-.54 34.97.01 2.15-.17 6.36-.13 2.83-.03 6.43.27 9.06.27 9.12.14 23.36.02 31.64-.08 4.87-.48 9.71-.48 5.8-.42 10.28.09 6-.83 12.22l-.06-14.26-.04-8.51q-.23-44.81-.03-89.65.01-2.23.6-4.63.68-2.73-.25-5.47c-.64-1.89-.32-3.49-.47-5.13-.32-3.3 4.05-5.67 6.57-6.77q1.7-.74 3.89-.77 15.44-.16 30.23.04a1.54 1.53-16 0 1 1.24.68q3.27 4.89 1.5 9.23ZM585.91 138.79l-.03 2.67-.01.81q-.03.19-.15.24-.2.07-.27-.13-.12-.37-.07-.83l-.25-132.61q-.01-.5-.35-.88-.57-.62-1.47-1.06.43-2.69-6.78-1.61l-16.97.01q-1.91-.62-3.21.43-2.15 1.73-2.16 3.92-.16 36.56-.05 73.12.01 4.36-2.16 6.49-.6.08-1.1-.5-3.47-4.06-5.35-9.09-1.19-3.16-2.37-6.35-.18-.78.23-1.55 1.37 3.52 2.74 6.96 1.52 3.8 3.98 7a1.42 1.41 30.9 0 0 2.52-.63q.39-2.38.38-5.44-.11-53.59.05-69.94.03-2.23 1.07-3.49c1.18-1.44 2.4-2.36 4.42-2.37q15.26-.01 21.71-.02 2.82 0 4.51 2.13 1.17 1.46 1.17 4.38.03 64.17-.03 128.34Z"/><path fill="#29262b" fill-opacity=".996" d="M774.87 11.26q-.04-2.34-2.19-4.92-.8-2.06-6.32-1.05l-50.08.15a1.59 1.53 25.7 0 0-.88.29q-1.57 1.11-3.06.86a1.57 1.54-21.8 0 1-.67-.28q-1.68-1.23-3.61-1.23-2.17-.53-3.31.44-2.44 2.08-2.63 5.69-.56-4.04 2.34-6.74.38-.35.88-.41 2.94-.36 5.71.48 1.62.5 2.24.28c1.01-.36 1.92-.81 3.02-.81q27.95-.11 54.9.03a2.35 2.34 66.8 0 1 1.62.65q2.63 2.52 2.04 6.57Z"/><path fill="#313537" fill-opacity=".996" d="m898.15 16.11-.53-8.31q-.78-.32-1.41-1.13-.41-1.4-1.78-1.54-2.84-.31-5.62.19-33.48-.16-66.91-.02-.1 0-4.78.25-3.05.16-6.15-.42-2.78-.23-4.28 1.75-.98 1.29-.96 4 .32 36.69.15 73.2 3 1.87 4.87 1.54 5.02-.86 10.03-.38 7.36.71 7.42.71 17.69.89 22.31 1.15 2.61.15 5.7-1.39 2.45-1.22 5.32.91 1.29 4.93.45 10.42-.33 2.15.03 4.39.91 5.56-.64 10.84-3.1 1.51-7.86.16.86.4 1.05-.14 1.5.32 1.71-.25 3.19.32 5.02-2 .82-1.04.78-2.82c-.07-2.58.22-4.08-1.3-6.2-1.23-1.7-.95-4.38-.01-6.02q1.14-1.97 1.24-2.88.12-.99.01-3.19-.02-.5-.45-.77-2.41-1.55-4.01-1.08-3.32.96-5.54.95-14.72-.02-24.95-.06-1.82-.01-3.83-.89-5.03-2.19-10.07-.57-3.98 1.28-7.05-1c-1.36-1.01-1.23-2.24-1.14-3.83q.02-.51-.21-.97-.84-1.61-.25-3.5.47-1.51.47-3.5-.04-32.51.01-62.48 0-.08-.11-1.97-.19-3.35 2.4-4.6 1.31-.63 4.58-.64 38.77-.09 77.54-.05c4.73.01 7.75-.53 9.09 4.28q1.1 3.98-.34 7.86Z"/><path fill="#53a5fc" d="m16.77 5.06.19 137.04a1.14 1.13-.8 0 1-1.11 1.13l-4.93.13q.64-67.66.04-135.61-.02-1.64 1.32-2.39 3.86-2.16 4.49-.3ZM150.32 4.59l.05 137.06q0 2.03-2.03 1.97l-4.19-.13q-.69-1.54-.54-3.36.21-2.71.21-2.78-.19-65.74-.04-102.35.07-16.12-.27-26.61 1.63-4.65 6.81-3.8ZM382.16 4.75q.31 14.72.13 35.5-.03 3.49-4.62 4.09-1.18-.25-1.57-1.88-.13-16.36.02-32.71.06-6.59 6.04-5Z"/><path fill="#c3e0fe" d="m219.25 89.97.68 8.18q.22 2.75 3.13 3.3.17.03 1-.26 2.07-.73 2.08-2.93l.26-92.95 24.32-.07q-.91 7.69-.9 19.01.07 91.97.03 118.86a.48.48 0 0 0 .48.48h5.2q.61 0 .84-.56l.41-1q.37.74 1.63-.19l-1.74 3.09q-.24.42-.7.54-1.56.42-2.94.28-.97-.1-2.72-1.03-2.53-1.34-5.06-.77-3.74.84-7.48.9-4.45.06-5.03.11c-2.38.23-4.79.77-6.67.24q-3.15-.88-5.28-3.29-1.14-1.29-2.79-5.33-2.71-6.6-7.78-17.33-9.35-19.75-11.85-24.23-2.9-5.19-4.19-8.47-.64-1.61-3.5-8.53-1.83-4.45-4.54-8.42-1.02-1.49-3.09-.05 1.39-4.94-2.14-9.05l-.35-6.99q-.15-2.9-3.06-2.92h-.12q-2.92-.01-3.09 2.89-.31 5.02-.3 9.27.09 40.24.02 79.71 0 .91 1.08 1.13-.81.36-.65 1.12-4.36-1.88-9.05.01-.42.17-1.44.17-.68-.01-1.4-.25-3.35-1.11-6.89-.76-1.38.14-2.7 1.38a1.5 1.48 20.3 0 1-.88.4l-1.36.14q-4.07.54-6.22-1.42-.12-.52-.35-.89l4.19.13q2.03.06 2.03-1.97l-.05-137.06q8.13.86 16.45.86 5.53 0 7.83.95 4.06 1.67 6 5.73 10.02 20.88 14.09 29.94 5.55 12.33 9.85 20.21c2.03 3.71 3.36 6.83 5.41 11.13 1.89 3.98 4.18 10 6.86 14.77q.79 1.41 2.44 1.79ZM16.77 5.06l105.82.22-.07 137.37q0 .6.57.77 2.38.69 5.49.05a1.1 1.1 0 0 0 .88-1.08l-.25-137.35q1.83 2 2.2 4.63.19 1.34-.33 3.61-.4 1.78-.77 3.57l.04 115.37q.56 2.06 1.34 3.92.37.86.47 4.1.07 2.48-1.07 3.82-1.72 2.02-4.27 1.83-.49-.04-3.84-1.41-2.63-1.07-5.45-.42-2.16.5-4.22 1.54-.45.22-.96.23l-13.14.07H87.55q-1.11-.37-2.35.02l-21.68.03q-15.03-.69-30.08-1.28-3.74-.15-5.79-.48c-2.6-.41-6.15-.77-8.35.46q-1.73.96-2.25 1.06-3.07.63-6.13-2.35l4.93-.13a1.14 1.13-.8 0 0 1.11-1.13L16.77 5.06Zm35.65 41.85a3.23 3.23 0 0 0-3.23-3.23h-.12a3.23 3.23 0 0 0-3.23 3.23v49.36a3.23 3.23 0 0 0 3.23 3.23h.12a3.23 3.23 0 0 0 3.23-3.23V46.91ZM90 46.09q-4.85 1.21-9.82.98-3.63-.16-5.84.11c-5.52.67-9.78 1.17-15.08-.09q-1.43-.34-3.67.65c-2.23.98-1.87 2.94-1.84 5.51q.27 22.14-.04 43.74a3.89 3.89 0 0 0 3.88 3.95l36.88.05q3.32 1.94 4.88-.33.83-1.2.84-3.85.1-36.57-.15-47.29c-.07-2.86-.9-6.38-4.2-5.3a1.49 1.45-80.8 0 0-.77.57l-.57.83q-.31.46-.84.46l-3.66.01Z"/><path fill="#53a5fc" d="m226.4 5.31-.26 92.95q-.01 2.2-2.08 2.93-.83.29-1 .26-2.91-.55-3.13-3.3l-.68-8.18q2.66-3.48 2.5-7.97-.19-5.12-.04-10.24.55-19.28-.07-24.14-.23-1.83-1.1-9.73-.56-5.08-.44-9.78.19-7.04-.17-16.92-.09-2.77 1.21-4.54 2.06-2.78 5.26-1.34ZM605.08 4.91q-1.24-.34-.7 2.01.27 1.14.27 1.97-.01 67 0 133.84a.66.66 0 0 1-.65.66l-4.99.07q-2.6-2.43-.66-5.62a2.58 2.51 61.7 0 0 .37-1.29q.53-62.97.16-126.26-.01-1.84.44-3.42a1.56 1.54 79.4 0 1 .54-.8q2.5-1.91 5.22-1.16ZM129.21 5.04l.25 137.35a1.1 1.1 0 0 1-.88 1.08q-3.11.64-5.49-.05-.57-.17-.57-.77l.07-137.37q3.78-.69 6.62-.24ZM255.95 5.04q.31 3.73.54 7.31.23 3.42.24 7.31.06 48.35-.06 96.69 0 2.74.18 12.84.12 6.42-.07 12.84l-.41 1q-.23.56-.84.56h-5.2a.48.48 0 0 1-.48-.48q.04-26.89-.03-118.86-.01-11.32.9-19.01l5.23-.2ZM314.55 5.17q-.25 52.16-.18 104.07 0 2.74-2.33 3.3c-2.47.6-4.14-1.04-4.15-3.51q-.17-88.8.09-101.51.02-.76.12-1.54.07-.53-.46-.62-.26-.04-.62.07l7.53-.26Z"/><path fill="#c3e0fe" d="M449.84 5.39q-.29 28.93.01 37.35.14 3.82 4.92 2.7-.13 1.31 1.7.85c-1.82.31-5.69.46-6.85-1.35a1.12 1.11 78.1 0 0-.76-.5q-7.93-1.23-14.06.78-1.91 3.72-1.19 5.77c.5 1.45 1.01 2.58 1.02 4.07q.02 34.83-.01 47.23c0 2.44-.45 5.93.2 8.97a1.93 1.93 0 0 0 1.36 1.46q5.9 1.68 11.99-.19l1.2.46q-.07 12.82.04 25.54.01.13-.15 2.43-.17 2.59 1.63 2.82-1.18.91-1.79.75-3.43-.53-4.45-.13-3.81 1.52-7.89 1.27-.55-.04-1.97-.38-1-.25-2.04-.23-11.23.22-27.1-.2-.06 0-4.28.13-4.41.14-8.7-.99-2.09-.55-4.38.48-2.61 1.18-4.06 1.34-4.17.45-6.57-1.99l6.19-.7q.52-.06.52-.58l-.34-31.09q1.28-.1 4.11 1l12.6.23q1.01-.54 1.31-1.11l.2-.36c3.73 1.54 5.18-.98 5.17-4.22q-.1-32.48-.05-56.52c.01-2.28.08-4.83-1.01-6.57q-1.33-2.14-3.88-.38-1.4-.9-2.63-1-.79-.07-1.92.65-1.34.84-1.93.85-4.11.07-7.86.08-1.47.01-2.76.44-1.8.59-2.68.92-3.51 1.33-5.03-1.13 4.59-.6 4.62-4.09.18-20.78-.13-35.5 1.86.54 4.84.52 24.88-.2 62.84.12Zm-17.09 39.89a3.42 3.42 0 0 0-3.42-3.42h-.12a3.42 3.42 0 0 0-3.42 3.42v63.52a3.42 3.42 0 0 0 3.42 3.42h.12a3.42 3.42 0 0 0 3.42-3.42V45.28Z"/><path fill="#53a5fc" d="M456.65 5.8q0 17.99-.06 34.95-.01 3.52-1.82 4.69-4.78 1.12-4.92-2.7-.3-8.42-.01-37.35 4.98-1.15 6.81.41ZM583.31 7l.02 135.24a1.43 1.43 0 0 1-1.2 1.42q-3.77.63-5.61-.83l.01-137.44q7.21-1.08 6.78 1.61Z"/><path fill="#c3e0fe" d="M605.08 4.91q2.67.35 5.17.34 28.37-.09 56.75-.01 1.32 0 2.62.15.54.06 2.46.79 2.57.98 5.7-.93l-.05 34.96q0 2.93 3.59 3.75.07.02.13 0 3.09-.78 3.09-3.45l-.04-35.17q.89.85 1.56 1.93.62.99.61 2.33-.06 14.13.05 28.26.02 2.75-.89 4.89-1.03 2.43-2.57 4.39l-2.08-.35-5.58-5.51a2.2 2.2 0 0 0-2.71-.3q-1.29.8-4.28 1.99-1.73.68-4.57.63-.74-.01-9.79.51-1.66.1-7.27-.03c-1.85-.04-2.91-1.34-4.74-1.68q-4.34-.81-5.75 3.9-.23.77-.24 3.26 0 1.9 1.01 2.93 1.45 1.47 3.68 1.23c1.15-.12 2.47-.86 3.3-1.15q1.17-.42 2.57-.42 15.78.01 31.54-.1v36.17q0 3.28 3.26 3.7.38.05.41.04 3.05-.89 3.05-3.57-.01-1.09-.11-33.65-.02-5.14-5.19-4.01.7-.84 1.42-1.21 1.05.29 1.98-.18 1.56 1.66 2.59 3.79.86 1.77.86 4.39-.05 28.59.14 31.98c.29 5.41-4.89 4.06-8.37 3.61q-4.32-.56-7.87 1.41-.43.24-2.29.25-9.44.06-19.24.14-1.02.01-2.55-.77-1.69-.87-2.42-1.01-3.69-.67-5.94 1.18-1.82 1.5-1.85 4.3-.04 4.07.48 6.88.65 3.51 1.22 6.68a1.17 1.16-.7 0 0 .96.93q2.85.45 5.94-1.01l21.56.02q1.3.63 3.42.22 2.89 1.21 4.15.81 1.71-.52 4.03-.93l-.1 30.8q0 .65.65.65h5.24a1.12 1.12 0 0 0 1.12-1.12l.12-30.06q1.67.18 1.67 2.1-.03 12.48 0 25.01.01 3.23-1.07 4.61-1.72 2.2-5.31 1.28c-1.15-.29-1.58-1.31-2.65-1.52-2.01-.39-4.62-.12-7 .66q-2.75.89-3.41.88-8.01-.13-15.93.19-9.07-.74-18.12-.65c-3.21.03-6.83-.76-10.11-.23-2.14.34-4.45.65-6.69-.2-3.09-1.17-6.67-1.43-9.48.29q-1.14.7-1.98.77-1.11.09-2.21-.02-2.23.04-3.72-2.19l4.99-.07a.66.66 0 0 0 .65-.66q-.01-66.84 0-133.84 0-.83-.27-1.97-.54-2.35.7-2.01Zm68.806 31.067a3.92 1.68 92.4 0 0 1.843-3.847 3.92 1.68 92.4 0 0-1.515-3.987 3.92 1.68 92.4 0 0-1.843 3.847 3.92 1.68 92.4 0 0 1.515 3.987ZM631.255 52.9a6.69 3.86 90.3 0 0 3.895-6.67 6.69 3.86 90.3 0 0-3.825-6.71 6.69 3.86 90.3 0 0-3.895 6.67 6.69 3.86 90.3 0 0 3.825 6.71Zm3.531 41.872a3.33 3.33 0 0 0-3.347-3.313l-.24.002a3.33 3.33 0 0 0-3.313 3.347l.088 16.7a3.33 3.33 0 0 0 3.347 3.313l.24-.002a3.33 3.33 0 0 0 3.313-3.347l-.088-16.7Z"/><path fill="#53a5fc" d="m684.5 5.34.04 35.17q0 2.67-3.09 3.45-.06.02-.13 0-3.59-.82-3.59-3.75l.05-34.96q2.92-.59 6.72.09ZM708.06 5.08q-.36.6-.14 1.04l.42.87q.2 1.12.22 2.26.22 16.77-.13 33.51l-3.9 2.14q-2.02-1.73-2.13-3.9-.32-6.33.07-17.25.16-4.59-.25-9.23l-.11-1.01v-.3l-.01-1.75.02-.25q.19-3.61 2.63-5.69 1.14-.97 3.31-.44Z"/><path fill="#c3e0fe" d="M766.36 5.29q-.7 5.55-.62 15.21.11 12.57.03 85c0 3.17 1.39 7.32 5.35 4.17q.84-.67 1.81-1.04 1.64 4.52 4.82 5.8 2.64 1.07 5.12-.99.46 14.28.18 28.56-.02 1.1 1.01 1.65l-1.38.96q-3.38-1.11-6.81.09-2.39.84-3.95.86-4.48.05-8.94.11-5.51-.25-10.99-.63-5.73-.4-10.98-.2-4.94.19-9.89-.17-1.37-.11-6.22.15-4.24.23-8.38-.93-2.77-.78-4.86 1.25a1.82 1.79-72.9 0 1-.87.47q-4.74 1.02-7.03-1.56 1.68-1.03 4.64-.63a.61.61 0 0 0 .69-.61q-.11-13.38-.01-26.86.01-.83-.23-2.38-.28-1.88.35-2.45 1.53 1.24 2.08 1.3 5.88.54 9.41 1.48 1.73.47 4.86-1.22c1.53 2.22 4.46 2.5 5.64-.11q.57-1.26.58-2.32.13-11.97.05-63.75 0-1.58-.58-2.95-.61-1.44-2.07-1.88-2.98-.89-4.01 2.64l-12.07 1.02q.96-.66 1.03-1.26.07-.54-.48-.62l-5.21-.69q.35-16.74.13-33.51-.02-1.14-.22-2.26l-.42-.87q-.22-.44.14-1.04 1.93 0 3.61 1.23a1.57 1.54-21.8 0 0 .67.28q1.49.25 3.06-.86a1.59 1.53 25.7 0 1 .88-.29l50.08-.15Z"/><path fill="#53a5fc" d="m772.68 6.34.13 21.87q-.62 1.84.27 4.29.41 1.14-.08 3.89-.41 2.24-.43 3.81-.35 31.96.31 64.09l.05 4.34q-.97.37-1.81 1.04c-3.96 3.15-5.35-1-5.35-4.17q.08-72.43-.03-85-.08-9.66.62-15.21 5.52-1.01 6.32 1.05ZM810.97 5.13q.57 2.81.58 4.62.08 21.47.14 67.5.01 3.65-.96 5.73-.74 1.6-4.85 1.1.17-36.51-.15-73.2-.02-2.71.96-4 1.5-1.98 4.28-1.75ZM896.21 6.67q-.13-.07-.25-.01-.3.14-.29.47.14 14.78-.01 30.62-.04 3.24-2.84 4.25a.67.65 86.9 0 0-.42.48q-.05.18.06.3l-1.21-.32q-.4-.36-.97-.31.33.04.53-.05a.29.29 0 0 0 .01-.52q-1.9-.92-1.91-2.32-.09-17.09-.1-33.94 2.78-.5 5.62-.19 1.37.14 1.78 1.54Z"/><path fill="#ebf0f1" d="M255.95 5.04q1.08 1.55 1.91 3.25.94 1.92.79 3.59c-.19 2.09-.5 3.87-.45 5.93q.61 22.82.24 50.69-.09 6.5-.47 41.77-.04 4.16-.15 8.32-.09 3.73.39 8.28.83 7.71.2 14.97-1.26.93-1.63.19.19-6.42.07-12.84-.18-10.1-.18-12.84.12-48.34.06-96.69-.01-3.89-.24-7.31-.23-3.58-.54-7.31Z"/><path fill="#c3e0fe" d="M314.55 5.17q2.14 3.6 1.85 7.51-.29 4.07-.29 4.14.13 15.16-.05 20.68-.69 20.51-.28 41.05.01 14.21-.18 28.45-.03 2.49.93 4.82.19.47.65.69 1.98.96 3.32.8 1.17-.14 4.56-1.23l25.18-.02 9.48 2.21q-.15 19.77.04 28.45.01.46.81.87-.62.62-.38 1.25-2.41-1.47-5.11-.72-1.7.48-3.39 1.04-1.67.55-3.44.45-4.69-.25-9.31.24l-16.14.08q-.8-.5-2.05-.27-.91.17-1.54-.27-.41-.29-.91-.28-10.1.14-22.44-.31c-4.08-.15-8.47-2.28-12.41-.12q-1.73.94-2.61 1.05-1.43.19-2.87.11-2.31-.21-2.76-1.37a.71.71 0 0 1 .66-.96h4.2a1.1 1.09 90 0 0 1.09-1.1q-.09-66.33-.01-132.85 0-1.15-.65-2.79.5-.55 1.01-.53 3.61.11 7.18-.31 4.55-.55 7.14-.53 5.62.05 11.19.03.36-.11.62-.07.53.09.46.62-.1.78-.12 1.54-.26 12.71-.09 101.51c.01 2.47 1.68 4.11 4.15 3.51q2.33-.56 2.33-3.3-.07-51.91.18-104.07Z"/><path fill="#53a5fc" d="M559.56 5.4q.27 47.46.15 95.02c-.01 2.86-1.94 5.27-4.95 3.95-1.51-.66-1.71-2.79-1.71-4.12q-.01-4.77.08-9.54.01-.51-.4-.81l-.75-.54q2.17-2.13 2.16-6.49-.11-36.56.05-73.12.01-2.19 2.16-3.92 1.3-1.05 3.21-.43Z"/><path fill="#c3e0fe" d="M888.81 5.32q.01 16.85.1 33.94.01 1.4 1.91 2.32a.29.29 0 0 1-.01.52q-.2.09-.53.05c-3.42-.53-7.64 0-10.03-.01q-14.71-.02-29.43.08-.13 0-3.53-.44-1.94-.25-3.9.65l-1.92 13.95a2.85 2.84 4.2 0 0 2.8 3.23q10.31.08 26.65.3 1.94.03 4.63-.34c3.14-.44 6.01.31 9.11.29q2.29-.01 4.45.09v82q0 1.71 1.71 1.71h2.79q2.2 0 2.2-2.2V61.65q0-.19.17-.25.13-.05.26-.01c.79.49 1.25.98 1.36 1.97q.28 2.65.18 5.29-.16 4.6-.16 4.7-.06 35.73.24 66.59.02 2.35-.6 3.49-.94 1.7-2.9 2.39-2.07.1-3.62-.63-2.76-1.32-2.81-1.33c-2.27-.43-4.13.33-6.35 1.12q-1.4.51-3.22.41c-4.05-.21-6.68-.38-10.96.06q-4.56.47-9.15.25-.31-.02-.29.25l-1.17-.04q-.41-.14-.83 0l-.41.02q-2.06-.44-4.18-.29-.08 0-.23-.05-.14-.05-.15-.19-.02-.29-.3-.3-2.03-.08-8.48.01-4.96.07-8.35-.25-4.07-.37-7.88 0-1.69.17-3.37-.32-1.19-.35-3.36-.74-3.82-.68-6.47.87-2.13 1.25-3.67 1.26-2.41.02-3.84-1.86 1.63-.9 4.1-.72a1 1 0 0 0 1.07-.99q.2-15.48.02-30.61-.01-.42.84-.63l1.45 1.2q.99.39 2.25.39 14-.02 28-.12.64 0 .72-.37l2.96-.13q.31-.03.53.05l6.3.29q4.76 1.35 7.86-.16c2.67 1.93 6.1 2.02 6.18-2.02q.17-8.65.16-17.3c0-1.96.31-5.2-.61-7.19-.78-1.68-3.51-2.51-4.85-.8q-.63.8-.72 1.66-2.87-2.13-5.32-.91-3.09 1.54-5.7 1.39-4.62-.26-22.31-1.15-.06 0-7.42-.71-5.01-.48-10.03.38-1.87.33-4.87-1.54 4.11.5 4.85-1.1.97-2.08.96-5.73-.06-46.03-.14-67.5-.01-1.81-.58-4.62 3.1.58 6.15.42 4.68-.25 4.78-.25 33.43-.14 66.91.02Zm-47.74 37.61a3.2 3.2 0 0 0-3.227-3.171l-.34.003a3.2 3.2 0 0 0-3.172 3.228l.098 11.24a3.2 3.2 0 0 0 3.228 3.171l.34-.003a3.2 3.2 0 0 0 3.172-3.228l-.098-11.24Z"/><path fill="#ebf0f1" d="m456.65 5.8 1.93 2.39-.12 34.84q.1 2.58-1.99 3.26-1.83.46-1.7-.85 1.81-1.17 1.82-4.69.06-16.96.06-34.95ZM774.87 11.26q-.02.26-.11.43-.17 4.47-.2 8.91-.01 2.02-.57 3.85-.55 1.78-1.18 3.76l-.13-21.87q2.15 2.58 2.19 4.92Z"/><path fill="#53a5fc" d="M280.5 6.77q.65 1.64.65 2.79-.08 66.52.01 132.85a1.1 1.09-90 0 1-1.09 1.1h-4.2a.71.71 0 0 0-.66.96q.45 1.16 2.76 1.37 1.75.87 4.55.49-4.08 1.39-7.79-.45a1.07 1.07 0 0 1-.6-.98l.08-5.69q.92-6.22.83-12.22-.06-4.48.42-10.28.4-4.84.48-9.71.12-8.28-.02-31.64 0-.06-.27-9.12-.1-3.6.03-6.43.18-4.21.17-6.36-.09-19.3.54-34.97c.08-2.02-1.22-4.95-.93-6.98.4-2.78 1.99-5.17 5.04-4.73Z"/><path fill="#ebf0f1" d="M896.21 6.67q.63.81 1.41 1.13l.01 18.53q.18 5.88.25 11.86.03 2.71-2.81 4.8-.69.51-1.28.43-.69-.08-1.33-.64-.11-.12-.06-.3a.67.65 86.9 0 1 .42-.48q2.8-1.01 2.84-4.25.15-15.84.01-30.62-.01-.33.29-.47.12-.06.25.01ZM583.31 7q.9.44 1.47 1.06.34.38.35.88l.25 132.61q.39 3.94-3.63 4.24-3.61.26-5.16-1.69-.34-1.13-.07-1.27 1.84 1.46 5.61.83a1.43 1.43 0 0 0 1.2-1.42L583.31 7Z"/><path fill="#4a4547" fill-opacity=".996" d="M898.15 16.11q-.56 3.15.3 5.79-1.03 1.3-.82 4.43l-.01-18.53.53 8.31Z"/><path fill="#53a5fc" d="m458.46 43.03.12-34.84-.12 34.84Z"/><path fill="#4a4547" fill-opacity=".996" d="M143.51 8.39q.34 10.49.27 26.61-.15 36.61.04 102.35 0 .07-.21 2.78-.15 1.82.54 3.36.23.37.35.89-.38-.09-.64-.26-.24-.17-.35-.55-.56-2.02-.4-4.29l.1-4.71q.67-10.48-.15-20.87V40.55l.45-32.16ZM475.65 11.44q.46 71.73.13 129.31-.01 2.55 1.38 3.18 1.95 2.64 5.18 1.48a1.98 1.95 10.5 0 0 .8-.54q.92-1.04 1.88-1.14 4.53-.44 9.05.88.49.14.99.09l8.72-1.01q1.48.8 2.55.77 2.32 1.61 4.03.92 1.54-.62 2.23-2.19.42-.98.39-2.94-.41-26.86-.31-53.7l.69-3.82.47 3.26q.41 38.11.04 56.89-.02.85-1.07 2.48-.27.43-.78.48-4.54.49-8.5-.74c-1.01-.31-2.48-.33-3.49.01q-4.81 1.62-10.59-.03-3.34-.96-6.94 1.04-2.16-.36-3.77.06-2.58-.68-3.39-2.47-1.51-3.34-.25-7.33l.09-19.92q-.21-.17-.05-.4.61-2.93-.11-5.61l.01-73.49.62-25.52Z"/><path fill="#29262b" fill-opacity=".996" d="m702.11 13.21-.01-1.75.01 1.75Z"/><path fill="#c3e0fe" d="m774.89 23.08-.11 1.51q-1.78 4.55-1.67 8.17.26 8.18.24 10.83-.04 4.54.33 10.81.41 7 .15 18.35-.35 15.7-.95 31.54-.66-32.13-.31-64.09.02-1.57.43-3.81.49-2.75.08-3.89-.89-2.45-.27-4.29.63-1.98 1.18-3.76.56-1.83.57-3.85.03-4.44.2-8.91l.13 11.39Z"/><path fill="#29262b" fill-opacity=".996" d="m702.22 14.52-.14 12.62.03-13.63.11 1.01ZM317.39 13.97q1.14 12.19.84 24 0 .3-.24.48-.11.08-.23.15-.71.45.16.17l.25-.02q.09 0 .09.09.05 3.35-.26 7.49-.06.82.15 1.63.22.82.03 1.61-.48 1.97-.27 6.16 0 .08.37 1.47.25.96-.2 1.55a.55.54-45.6 0 0 0 .67q.41.51.36 2.39-.02.72-.62 2.16-.9 2.16-.22 4.28.73 2.3.74 3.19.02 1.27-.07 3.3a1.43 1.41-22.7 0 1-.36.86q-.3.34-.36.42-.14.21-.15.48-.15 3.88-.05 7.75.04 1.72.6 2.29a.77.75-72 0 1 .23.47q.21 1.71-.74 3.02a1.64 1.63-27 0 0-.3.91q-.24 11.43-.22 16.3.01 2.6 1.38 4.26.32.39.83.41l5.93.17q-3.39 1.09-4.56 1.23-1.34.16-3.32-.8-.46-.22-.65-.69-.96-2.33-.93-4.82.19-14.24.18-28.45.75-3.39.66-4.3-.4-3.72-.44-7.48-.02-1.32.38-1.98c.4-.67.71-1.88.74-2.61q.01-.26.01-10.63 0-3.69-.39-10.59-.78-13.49.65-26.99Zm.072 61.23a.18.03 108.9 0 0 .086-.16.18.03 108.9 0 0 .03-.18.18.03 108.9 0 0-.086.16.18.03 108.9 0 0-.03.18Zm-1.132 2.02q-.37.52.04.91.06-.47-.04-.91Z"/><path fill="#4a4547" fill-opacity=".996" d="M704.53 44.9q2.85 1.96 8.56.43l12.07-1.02 1.23 2.01q.26.42.21.92-1.07 11.75-.82 24.88.08 4.33-.05 6.81-.14 2.73-.04 6.84.16 6.73.11 10.2-.14 9.34-.14 12.28.01 2.35-.11 4.43-3.13 1.69-4.86 1.22-3.53-.94-9.41-1.48-.55-.06-2.08-1.3-3.29-1.24-4.45 1.11-1.88 3.81-1.25 8 .6 3.97.51 7.96-.03 1.08-1.01 6.53-.91 5.08.76 9.33 2.29 2.58 7.03 1.56a1.82 1.79-72.9 0 0 .87-.47q2.09-2.03 4.86-1.25 4.14 1.16 8.38.93 4.85-.26 6.22-.15 4.95.36 9.89.17 5.25-.2 10.98.2 5.48.38 10.99.63l-19.28.17q-11.9.12-23.84.1-1.8 0-3.24-.52-2.02-.73-3.56.05-3.08 1.56-4.78 1.63-3.03.1-5.05-2.22-1.31-1.5-1.26-4.71.05-3.89.03-22.6 0-2.49.85-3.82 1.01-1.56 1.41-3.1.14-.53.68-.61 4.45-.7 7.79 1.68.46.33 1.02.33h9.51q1.77 0 1.77-1.78-.1-32.72-.04-61.52 0-2.71-2.48-2.85-2.32-.13-4.24.49-2.21.71-4.09.7-5.76-.02-8.23-.15a4.09 4.09 0 0 1-3.89-4.1l.02-15.7.14-12.62q.41 4.64.25 9.23-.39 10.92-.07 17.25.11 2.17 2.13 3.9ZM130.31 16.85q.84.93.62 3.61l-.01 94.33-.57 17.43-.04-115.37Z"/><path fill="#29262b" fill-opacity=".996" d="m888.5 42.92 2.75-.46 1.21.32q.64.56 1.33.64.59.08 1.28-.43 2.84-2.09 2.81-4.8-.07-5.98-.25-11.86-.21-3.13.82-4.43 1.19 11.42.38 16.91-.52 3.55-3.58 5.88a2.17 2.17 0 0 1-2.94-.27q-1.4-1.55-3.81-1.5ZM774.89 23.08l-.03 8.2-.08-6.69.11-1.51Z"/><path fill="#4a4547" fill-opacity=".996" d="m774.78 24.59.08 6.69q.28 35.03.03 70.09-.01 1.15-.43 2.46c-.41 1.28-.75 2.07-.35 3.23q.85 2.49 1.04 4.01.05.48.5.66l1.58.64q.53.22.81.71c.59 1.05 1.59 1.29 2.63.63q4.38-2.78 6.9-3.57 4.64-1.46 5.31 2.7.27 1.69.04 6.95-.01 1.65-1.53 2.79 1.24-4.31.98-8.6-.03-.5-.34-.88-1.62-1.97-3.4-2.48-1.73.46-3.11 1.45-.41.29-.9.38-1.75.33-1.75.99-2.48 2.06-5.12.99-3.18-1.28-4.82-5.8l-.05-4.34q.6-15.84.95-31.54.26-11.35-.15-18.35-.37-6.27-.33-10.81.02-2.65-.24-10.83-.11-3.62 1.67-8.17Z"/><ellipse fill="#29262b" fill-opacity=".996" transform="rotate(92.4 321.653 339.225)" rx="3.92" ry="1.68"/><rect fill="#53a5fc" x="-3.37" y="-8.82" transform="rotate(-.5 5985.698 -95974.18)" width="6.74" height="17.64" rx="3.2"/><ellipse fill="#53a5fc" transform="rotate(90.3 292.66 337.102)" rx="6.69" ry="3.86"/><path fill="#313537" fill-opacity=".996" d="m681.18 46.79.01 2.73q-.72.37-1.42 1.21-1.2.43-1.42 1.32-15.76.11-31.54.1-1.4 0-2.57.42c-.83.29-2.15 1.03-3.3 1.15q-2.23.24-3.68-1.23-1.01-1.03-1.01-2.93.01-2.49.24-3.26 1.41-4.71 5.75-3.9c1.83.34 2.89 1.64 4.74 1.68q5.61.13 7.27.03 9.05-.52 9.79-.51 2.84.05 4.57-.63 2.99-1.19 4.28-1.99a2.2 2.2 0 0 1 2.71.3l5.58 5.51Zm-13.69-1.9q-3.2.06-22.01.09c-1.68 0-3.17-1.19-4.84-.82q-3.32.73-2.77 4.9c.27 2.09 1.27 3.48 3.31 2.84 1.22-.38 1.74-.86 3.42-.86q15.6-.05 31.2-.08c2.03 0 3.19-.48 3.94-2.32q.43-1.04-.34-1.87c-1.47-1.59-2.73-3.31-4.4-3.63-2.12-.41-3.65-.28-5.5.83q-1.53.92-2.01.92Z"/><path fill="#53a5fc" d="M725.55 112.68q.12-2.08.11-4.43 0-2.94.14-12.28.05-3.47-.11-10.2-.1-4.11.04-6.84.13-2.48.05-6.81-.25-13.13.82-24.88.05-.5-.21-.92l-1.23-2.01q1.03-3.53 4.01-2.64 1.46.44 2.07 1.88.58 1.37.58 2.95.08 51.78-.05 63.75-.01 1.06-.58 2.32c-1.18 2.61-4.11 2.33-5.64.11Z"/><path fill="#4a4547" fill-opacity=".996" d="M890.28 42.15q.57-.05.97.31l-2.75.46h-35.34l-6.68-.04q-.07 0-.15-.01-.45-.72-2.94-.44 1.96-.9 3.9-.65 3.4.44 3.53.44 14.72-.1 29.43-.08c2.39.01 6.61-.52 10.03.01Z"/><rect fill="#53a5fc" x="425.79" y="41.86" width="6.96" height="70.36" rx="3.42"/><path fill="#4a4547" fill-opacity=".996" d="M377.67 44.34q1.52 2.46 5.03 1.13.88-.33 2.68-.92 1.29-.43 2.76-.44 3.75-.01 7.86-.08.59-.01 1.93-.85 1.13-.72 1.92-.65 1.23.1 2.63 1 1.21 3.74.47 5.42-1.11 2.53-1.17 4.58-.51 20.47-.1 48.11.02 1.93.26 4.78.2 2.39.31 4.8l-.2.36q-.85-1.67-1.02-1.19l.03-64.21a1.24 1.24 0 0 0-1.24-1.24h-12.96a1.41 1.4 26.8 0 0-.83.27q-6.19 4.5-10.17-1.17l.24-1.58q.39 1.63 1.57 1.88Z"/><path fill="#29262b" fill-opacity=".996" d="M843.39 42.43q2.49-.28 2.94.44-1.06-.14-1.88.15-.51.17-.52.71-.07 3.62.03 7.09.04 1.42-.25 2.38-.65 2.18-.65 2.24-.12 1.49.96 2.83.58.71 2.34.71 13.68.04 23.56-.01c2.63-.01 4.3-.8 7.12-1.85q.47-.18.93.03 4.13 1.83 8.43 1.99l8.9.02q1.86.99 2.81 3 .74 1.55.74 3.88.01 6.57.01 10.46 0 .39.18.56a.34.34 0 0 1-.13.57q-.42.13-.11.51.26.31.26.72.32 21.95-.09 37.24-.06 1.89-.65 4.51-.45 1.98.02 3.96.58 2.37.59 3.91.05 4.74-.05 12.57-.05 3.75-3.64 5.48-2.24 1.09-4.77-.24l3.89-.47q1.96-.69 2.9-2.39.62-1.14.6-3.49-.3-30.86-.24-66.59 0-.1.16-4.7.1-2.64-.18-5.29c-.11-.99-.57-1.48-1.36-1.97q-.22-1.14-1.6-1.56-2.84-.87-5.53.12-2.16-.1-4.45-.09c-3.1.02-5.97-.73-9.11-.29q-2.69.37-4.63.34-16.34-.22-26.65-.3a2.85 2.84 4.2 0 1-2.8-3.23l1.92-13.95Z"/><path fill="#53a5fc" d="M402.25 111.22q-.11-2.41-.31-4.8-.24-2.85-.26-4.78-.41-27.64.1-48.11.06-2.05 1.17-4.58.74-1.68-.47-5.42 2.55-1.76 3.88.38c1.09 1.74 1.02 4.29 1.01 6.57q-.05 24.04.05 56.52c.01 3.24-1.44 5.76-5.17 4.22Z"/><path fill="#ebf0f1" d="m708.43 42.76 5.21.69q.55.08.48.62-.07.6-1.03 1.26-5.71 1.53-8.56-.43l3.9-2.14Z"/><path fill="#29262b" fill-opacity=".996" d="m853.16 42.92-6.68-.04 6.68.04Z"/><rect fill="#53a5fc" x="45.84" y="43.68" width="6.58" height="55.82" rx="3.23"/><path fill="#53a5fc" d="M94.47 100.99q.92-5.15.6-9.92-.46-6.94-.44-8.18.3-16.52.91-31.21l.15-1.49q.3-3.11-2.45-3.9-.73-.21-3.24-.2l3.66-.01q.53 0 .84-.46l.57-.83a1.49 1.45-80.8 0 1 .77-.57c3.3-1.08 4.13 2.44 4.2 5.3q.25 10.72.15 47.29-.01 2.65-.84 3.85-1.56 2.27-4.88.33Z"/><path fill="#313537" fill-opacity=".996" d="m434.8 45.22.12 5.05c.49 1.6 1.06 3 1.06 4.71q-.05 27.38-.05 54.71 0 2.25 2.26 2.27l11.61.07q-.57.37-1.63.5-6.09 1.87-11.99.19a1.93 1.93 0 0 1-1.36-1.46c-.65-3.04-.2-6.53-.2-8.97q.03-12.4.01-47.23c-.01-1.49-.52-2.62-1.02-4.07q-.72-2.05 1.19-5.77Z"/><path fill="#4a4547" fill-opacity=".996" d="M90 46.09q2.51-.01 3.24.2 2.75.79 2.45 3.9l-.15 1.49q-.61 14.69-.91 31.21-.02 1.24.44 8.18.32 4.77-.6 9.92l-36.88-.05a3.89 3.89 0 0 1-3.88-3.95q.31-21.6.04-43.74c-.03-2.57-.39-4.53 1.84-5.51q2.24-.99 3.67-.65c5.3 1.26 9.56.76 15.08.09q2.21-.27 5.84-.11 4.97.23 9.82-.98Zm-34.37 2.98a.67.67 0 0 0-.67.67v46.22q0 4.05 4.05 4.04h32.5q2.23 0 2.42-2.26.26-3.15-.26-5.74-.7-3.5-.72-5.64-.06-8.4.1-13.78c.05-1.82.87-3.38.87-5.3q.03-8.02.05-17.42a1.84 1.83 7.2 0 0-1.39-1.79q-1.68-.42-3.41.1-2.75.83-4.37.87-3.92.11-29.17.03Z"/><path fill="#53a5fc" d="M683.26 47.14q-.53 1.67-.09 2.2-.93.47-1.98.18l-.01-2.73 2.08.35ZM180.91 60.5l.05 15.39-.09 6.91.02 59.29q0 1.53-1.53 1.52l-4.27-.02q-1.08-.22-1.08-1.13.07-39.47-.02-79.71-.01-4.25.3-9.27.17-2.9 3.09-2.89h.12q2.91.02 3.06 2.92l.35 6.99ZM679.77 50.73q5.17-1.13 5.19 4.01.1 32.56.11 33.65 0 2.68-3.05 3.57-.03.01-.41-.04-3.26-.42-3.26-3.7V52.05q.22-.89 1.42-1.32Z"/><path fill="#313537" fill-opacity=".996" d="m895.3 59.16-8.9-.02 8.9.02Z"/><path fill="#53a5fc" d="M896.24 61.39q-.13-.04-.26.01-.17.06-.17.25v79.81q0 2.2-2.2 2.2h-2.79q-1.71 0-1.71-1.71v-82q2.69-.99 5.53-.12 1.38.42 1.6 1.56Z"/><path fill="#ebf0f1" d="m183.05 69.55-2.09 6.34-.05-15.39q3.53 4.11 2.14 9.05Z"/><path fill="#53a5fc" d="m511.12 74.41-.03 68.09a1.14 1.14 0 0 1-1.22 1.14q-2.59-.19-3.54.82-1.07.03-2.55-.77.51-.09.51-.44-.03-62.26-.04-63.69-.05-7.16.9-11.63c.3-1.43.69-2.17 2.18-2.4q2.64-.4 2.98 2.74.36 3.27.81 6.14Z"/><path fill="#ebf0f1" d="M512.67 86.55q-.1 26.84.31 53.7.03 1.96-.39 2.94-.69 1.57-2.23 2.19-1.71.69-4.03-.92.95-1.01 3.54-.82a1.14 1.14 0 0 0 1.22-1.14l.03-68.09q1.92 1.61 2.7 4.45.14.49-.06.96-1.41 3.28-1.09 6.73Z"/><path fill="#29262b" fill-opacity=".996" d="M576.59 144.1q1.55 1.95 5.16 1.69 4.02-.3 3.63-4.24-.05.46.07.83.07.2.27.13.12-.05.15-.24l.06 2.84q.01.56-.52.72-2.28.71-4.56 1.25-1.13.27-3.66-1.02c-1.67-.86-2.98-1.43-4.95-.93-3.29.83-5.77 1.77-8.65 1.84q-5.24.12-6.99.11-4.34-.02-6.52-1.56-3.65-2.58-4.73-5.32c-1.78-4.47-2.74-7-4.75-10.72q-4.77-8.81-9.05-17.28-1.09-2.16-7.02-12.25-1.18-2-2.84-5.47-1.38-2.89-2.96-5.46c-.95-1.55-1.02-3.9-3.38-4.93q-.48-.2-.88.13-.63.51-.64 1.77l-.47-3.26q.82-1.18 1.75-1.27.52-.05.81.37 4.56 6.52 6.18 10.75 1.33 3.45 3.65 7.53 2.4 4.22 2.43 4.27 3.65 7.11 11.95 22.2 3.71 6.75 6.68 13.87 2.38 5.71 8.92 5.57c6.66-.15 10.65.43 13.36-1.04q3.39-1.84 7.5-.88Z"/><path fill="#ebf0f1" d="M180.87 82.8q1.72 4.62 1.77 8.97.2 15.06.05 44.32 0 .12.12 2.31.17 3.04-1.49 5.48-1.16 1.71-3.07 1.84-2.03.13-3.81-1.01-.16-.76.65-1.12l4.27.02q1.53.01 1.53-1.52l-.02-59.29Z"/><path fill="#53a5fc" d="M861.37 112.27q1.55-5.28.64-10.84-.36-2.24-.03-4.39.84-5.49-.45-10.42.09-.86.72-1.66c1.34-1.71 4.07-.88 4.85.8.92 1.99.61 5.23.61 7.19q.01 8.65-.16 17.3c-.08 4.04-3.51 3.95-6.18 2.02Z"/><rect fill="#53a5fc" x="-3.45" y="-11.68" transform="rotate(-.3 20013.934 -120532.852)" width="6.9" height="23.36" rx="3.33"/><path fill="#29262b" fill-opacity=".996" d="m183.97 97.72-.16-.99.16.99Z"/><path fill="#4a4547" fill-opacity=".996" d="m390.04 111.97-1.9.49q-2.83-1.1-4.11-1-6.49 1.08-6.22 6 .79 14.83-.15 26.37 2.4 2.44 6.57 1.99 1.45-.16 4.06-1.34 2.29-1.03 4.38-.48 4.29 1.13 8.7.99 4.22-.13 4.28-.13 15.87.42 27.1.2 1.04-.02 2.04.23 1.42.34 1.97.38 4.08.25 7.89-1.27 1.02-.4 4.45.13 3.02 1.6 6.42 1.25 3.05-.32 3.07-3.8.09-11.28-.15-22.54 0-.08.14-2.36.19-3.02-2.42-4.47-.46-.57-1.38-.9-.7-.25-1.57-.01-1.89.54-3.84 1.29l-1.2-.46q1.06-.13 1.63-.5l3.44-1.97a1.21 1.2 38.2 0 1 .95-.11q2.34.74 4.4 2.46a1 1 0 0 1 .36.77v31.81q0 .46-.37.72-.51.38-1.38.27l-6.46.28-43.78-.34q-.59-.11-1.17 0-5.06 0-10.15.03-1 0-2.17-.36c-1.11-.35-1.75-.62-2.96-.31q-3.82.98-4.48 1.18-2.88.89-4.59.42-2.87-.8-4.3-2.24c-1.76-1.76-1.07-4.12-.4-6.39q.27-.93.29-3.02.05-5.86-.07-11.71-.01-.43-.64-4.25-.52-3.13 1.62-6.14.73-1.01 1.94-1.31.95-.24 2.16-1.14c1.26-.94 2.99-.83 4.16-.67 1.46.19 2.44 1.33 3.84 1.96Z"/><path fill="#29262b" fill-opacity=".996" d="m631.46 145.88 19.86-.19q7.92-.32 15.93-.19.66.01 3.41-.88c2.38-.78 4.99-1.05 7-.66 1.07.21 1.5 1.23 2.65 1.52q3.59.92 5.31-1.28 1.08-1.38 1.07-4.61-.03-12.53 0-25.01 0-1.92-1.67-2.1.62-2.55-3.52-2.27-2.24.16-3.51 2-2.32.41-4.03.93-1.26.4-4.15-.81l-1.27-.26q2.8-.07 5.63-.07c2.1 0 3.02-.71 4.57-1.69q.44-.28.96-.28h4.89q.52 0 .89.38 2.49 2.59 2.49 4.35-.04 22.61.02 27.24c.02 2.02-.93 2.66-2.55 3.82q-3.3 2.37-7.04-.21-.38-.27-2.41-.62c-1.78-.31-3.49.93-4.99.95q-7.97.14-39.54-.06ZM814.65 112.08l-1.9.24-1.45-1.2q-1.35-.88-2.98-.79-1.38.08-2.48 1.4-1.88 2.24-1.81 4.31.36 12.15-.28 22.2-.25 4.03 1.52 5.83 1.43 1.88 3.84 1.86 1.54-.01 3.67-1.26 2.65-1.55 6.47-.87 2.17.39 3.36.74 1.68.49 3.37.32 3.81-.37 7.88 0 3.39.32 8.35.25 6.45-.09 8.48-.01.28.01.3.3.01.14.15.19.15.05.23.05 2.12-.15 4.18.29-15.5.03-30.99-.01-2.52-.01-4.36-.56c-3.5-1.04-5.57-.13-8.98 1.04q-2.43.84-3.85.28-1.73-.68-3.23-2.32-1.24-1.35-1.18-3.62.07-2.72.05-24.73c0-2.46.91-3.59 2.17-5.33.69-.95 1.54-.62 2.37-.72q4.01-.48 7.1 2.12ZM402.05 111.58q-.3.57-1.31 1.11l-5.29-.65q6.41.63 5.58-1.65.17-.48 1.02 1.19Z"/><path fill="#53a5fc" d="m685.02 112.48-.12 30.06a1.12 1.12 0 0 1-1.12 1.12h-5.24q-.65 0-.65-.65l.1-30.8q1.27-1.84 3.51-2 4.14-.28 3.52 2.27Z"/><path fill="#29262b" fill-opacity=".996" d="m475.13 116.06-.11-5.61q.72 2.68.11 5.61Z"/><path fill="#53a5fc" d="M811.3 111.12q-.85.21-.84.63.18 15.13-.02 30.61a1 1 0 0 1-1.07.99q-2.47-.18-4.1.72-1.77-1.8-1.52-5.83.64-10.05.28-22.2-.07-2.07 1.81-4.31 1.1-1.32 2.48-1.4 1.63-.09 2.98.79ZM709.2 111.12q-.63.57-.35 2.45.24 1.55.23 2.38-.1 13.48.01 26.86a.61.61 0 0 1-.69.61q-2.96-.4-4.64.63-1.67-4.25-.76-9.33.98-5.45 1.01-6.53.09-3.99-.51-7.96-.63-4.19 1.25-8 1.16-2.35 4.45-1.11ZM788.63 110.62q1.12 1.19 1.18 2.39.7 14.62.08 29.39a1.12 1.12 0 0 1-1.06 1.06l-4.77.19q-1.03-.55-1.01-1.65.28-14.28-.18-28.56 0-.66 1.75-.99.49-.09.9-.38 1.38-.99 3.11-1.45Z"/><path fill="#ebf0f1" d="M791.39 122.58q-.32 2.76-.08 4.11 1.02 5.68 1.34 10.45.29 4.19-1.83 6.8-1.38 1.69-3.8 1.79-2.28.09-4.34-1.12l1.38-.96 4.77-.19a1.12 1.12 0 0 0 1.06-1.06q.62-14.77-.08-29.39-.06-1.2-1.18-2.39 1.78.51 3.4 2.48.31.38.34.88.26 4.29-.98 8.6Z"/><path fill="#53a5fc" d="m384.03 111.46.34 31.09q0 .52-.52.58l-6.19.7q.94-11.54.15-26.37-.27-4.92 6.22-6ZM456.16 112.61l.09 29.54a1.38 1.38 0 0 1-1.31 1.39l-4.05.24q-1.8-.23-1.63-2.82.16-2.3.15-2.43-.11-12.72-.04-25.54 1.95-.75 3.84-1.29.87-.24 1.57.01.92.33 1.38.9Z"/><path fill="#4a4547" fill-opacity=".996" d="m369 115.33-2.38-.62q.22-.86-1.37-1.25-3.15-.77-5.53.81l-9.48-2.21q7.34-.04 14.76-.04 2.58.01 4 3.31Z"/><path fill="#53a5fc" d="m390.04 111.97 5.41.07 5.29.65-12.6-.23 1.9-.49ZM668.54 112.07l1.27.26q-2.12.41-3.42-.22l2.15-.04ZM814.65 112.08l8.89-.04 2.17.03 16.34.02 1.67.13q-.08.37-.72.37-14 .1-28 .12-1.26 0-2.25-.39l1.9-.24Z"/><path fill="#29262b" fill-opacity=".996" d="m825.71 112.07-2.17-.03 2.17.03ZM846.68 112.09l-2.96.13-1.67-.13h4.63Z"/><path fill="#53a5fc" d="m852.53 112.13 2.03.16q-.19.54-1.05.14l-6.3-.29 5.32-.01Z"/><path fill="#4a4547" fill-opacity=".996" d="M856.27 112.04q-.21.57-1.71.25l-2.03-.16 3.74-.09Z"/><path fill="#ebf0f1" d="M456.16 112.61q2.61 1.45 2.42 4.47-.14 2.28-.14 2.36.24 11.26.15 22.54-.02 3.48-3.07 3.8-3.4.35-6.42-1.25.61.16 1.79-.75l4.05-.24a1.38 1.38 0 0 0 1.31-1.39l-.09-29.54Z"/><path fill="#53a5fc" d="m366.62 114.71-.05 27.86a.93.92-5.2 0 1-.76.91q-2.65.5-5.24.11-.8-.41-.81-.87-.19-8.68-.04-28.45 2.38-1.58 5.53-.81 1.59.39 1.37 1.25Z"/><path fill="#313537" fill-opacity=".996" d="m143.21 134.57-.15-20.87q.82 10.39.15 20.87Z"/><path fill="#29262b" fill-opacity=".996" d="M130.92 114.79q.02 6.18.05 12.41.01 2.67.82 4.89 1.55 4.26 1.27 8.79-.15 2.56-1.02 3.67-.95 1.2-3.46 2.19-1.58.62-3.56-.26-.29-.13-3.58-1.21c-3.05-1.01-4.47.74-7.27.7q-7.49-.08-14.96-.07l13.14-.07q.51-.01.96-.23 2.06-1.04 4.22-1.54 2.82-.65 5.45.42 3.35 1.37 3.84 1.41 2.55.19 4.27-1.83 1.14-1.34 1.07-3.82-.1-3.24-.47-4.1-.78-1.86-1.34-3.92l.57-17.43Z"/><path fill="#ebf0f1" d="m366.62 114.71 2.38.62q-.1.08-.2.15l-.01 4.31-.05 6.7.14 6.23.1 9.33q-1.1.96-2.12 2.01-1.23 1.27-2.38 1.51-2.21.45-4.29-.73-.24-.63.38-1.25 2.59.39 5.24-.11a.93.92-5.2 0 0 .76-.91l.05-27.86Z"/><path fill="#4a4547" fill-opacity=".996" d="m368.8 115.48.13 4.25-.14.06.01-4.31Z"/><path fill="#29262b" fill-opacity=".996" d="m274.15 124.95-.04-8.51.04 8.51ZM475.09 136.38l.09-19.92-.09 19.92Z"/><path fill="#53a5fc" d="m368.93 119.73-.06 6.74-.13.02.05-6.7.14-.06Z"/><path fill="#29262b" fill-opacity=".996" d="M792.92 119.79q.08 10.39.01 20.79-.02 2.81-1.09 3.87-1.42 1.41-3.77 2.1-1.31.38-2.55.07-2.05-.52-2.13-.53-2.02-.2-3.98-.73-.49-.13-.97 0-.81.21-1.6.44-.47.14-1.72.14-15.7.07-31.42-.1l19.28-.17q4.46-.06 8.94-.11 1.56-.02 3.95-.86 3.43-1.2 6.81-.09 2.06 1.21 4.34 1.12 2.42-.1 3.8-1.79 2.12-2.61 1.83-6.8-.32-4.77-1.34-10.45-.24-1.35.08-4.11 1.52-1.14 1.53-2.79Z"/><path fill="#4a4547" fill-opacity=".996" d="m368.87 126.47.01 6.25-.14-6.23.13-.02Z"/><path fill="#29262b" fill-opacity=".996" d="m585.91 138.79-.03 2.67.03-2.67ZM144.5 144.38q2.15 1.96 6.22 1.42l1.81.52q-3.93 1.69-7.88-.51-1.39-.77-1.47-2.08-.12-2.2-.07-4.45-.16 2.27.4 4.29.11.38.35.55.26.17.64.26Z"/><path fill="#313537" fill-opacity=".996" d="M368.98 142.05q-.85 3.95-4.73 4.66-1.79.33-3.88-.42-1.66-.6-3.33-1.14-.5-.17-.99.03-2.79 1.08-5.51.65l-10.6-.02q-.36.21-1 .04 4.62-.49 9.31-.24 1.77.1 3.44-.45 1.69-.56 3.39-1.04 2.7-.75 5.11.72 2.08 1.18 4.29.73 1.15-.24 2.38-1.51 1.02-1.05 2.12-2.01Z"/><path fill="#4a4547" fill-opacity=".996" d="M322.8 145.93q-14.09.1-28.15-.07-1-.02-4.83-.7-3.75-.66-7.3 1.17-2.8.38-4.55-.49 1.44.08 2.87-.11.88-.11 2.61-1.05c3.94-2.16 8.33-.03 12.41.12q12.34.45 22.44.31.5-.01.91.28.63.44 1.54.27 1.25-.23 2.05.27ZM651.32 145.69l-19.86.19q-7.18.12-14.39.06-1.04-.01-3.78-.72c-2.74-.71-4.86.32-7.66 1.42-1.78.7-3 .16-4.6-.53l1.7-.46q1.1.11 2.21.02.84-.07 1.98-.77c2.81-1.72 6.39-1.46 9.48-.29 2.24.85 4.55.54 6.69.2 3.28-.53 6.9.26 10.11.23q9.05-.09 18.12.65ZM894.36 145.82l-3.89.47q-2.67-1.48-5.36-.96-3.21.64-3.87.64-3.29.02-6.58-.06l-9.34-.01-7.36.05q-.02-.27.29-.25 4.59.22 9.15-.25c4.28-.44 6.91-.27 10.96-.06q1.82.1 3.22-.41c2.22-.79 4.08-1.55 6.35-1.12q.05.01 2.81 1.33 1.55.73 3.62.63ZM87.55 145.9l-2.35.02q1.24-.39 2.35-.02ZM350.54 145.83l-10.6-.02 10.6.02Z"/><path fill="#29262b" fill-opacity=".996" d="M406.96 145.92h-1.17q.58-.11 1.17 0ZM856.79 145.91h-.83q.42-.14.83 0ZM874.66 145.91l-9.34-.01 9.34.01ZM457.2 145.98q-3.11 1.91-6.46.28l6.46-.28ZM482.5 146.12q-1.8 1.79-3.77.06 1.61-.42 3.77-.06Z"/></svg>